<svg xmlns="http://www.w3.org/2000/svg" xmlns:xlink="http://www.w3.org/1999/xlink" version="1.1" viewBox="125.88 195.73 64.65 63.59">
<path transform="matrix(1,0,0,-1,189.99,229.78137)" d="M0 0C-.628 .518-1.21 1.005-1.508 1.728-1.084 1.382-.44 1.225-.236 .675H-.188C-.141 1.712-1.524 2.168-1.634 3.204-1.524 3.487-1.288 3.251-1.131 3.157-.456 2.67-.016 1.948 .189 1.194 .173 .817 .22 .33 0 0M-.188-2.498C-.565-2.781-.895-2.262-1.21-2.074-1.477-1.806-1.728-1.524-1.634-1.1-1.147-1.398-.88-1.869-.565-2.262-.44-2.089-.518-1.901-.534-1.697-.644-.801-2.058-.173-1.319 .785-.958 .55-.785 .188-.534-.157-.079-.801 .204-1.744-.188-2.498M-.456-4.838-.832-5.592C-1.304-5.262-.691-4.728-.942-4.226-1.241-3.644-1.728-3.142-1.932-2.529-1.964-2.341-1.885-2.215-1.775-2.074-1.052-2.812-.047-3.66-.456-4.838M-1.634-7.996C-1.712-7.32-2.482-6.865-2.576-6.158-2.121-6.503-1.901-7.006-1.665-7.477-1.319-7.352-1.665-6.99-1.665-6.755-2.042-6.142-2.482-5.419-2.309-4.712-1.759-4.32-1.681-5.247-1.445-5.545-1.084-6.283-1.147-7.336-1.634-7.996M-2.576-10.493C-2.78-10.053-2.482-9.535-2.686-9.095-2.906-8.42-3.644-7.352-2.717-6.833-2.278-7.886-1.602-9.456-2.576-10.493M-3.44-8.608C-3.11-8.954-3-9.409-2.953-9.881-3.063-9.441-3.471-9.111-3.44-8.608M-3.519-12.378C-3.691-12.52-3.754-12.677-3.958-12.755L-4.304-11.2C-4.021-11.404-3.88-11.875-3.895-12.3-3.801-12.347-3.613-12.252-3.628-12.111-3.566-11.153-4.367-10.32-3.958-9.315-3.723-8.907-3.566-9.425-3.471-9.582-3.236-10.462-2.812-11.577-3.519-12.378M-4.571-14.216C-4.759-14.405-4.979-14.719-5.247-14.514L-5.356-14.405C-5.435-13.76-5.843-13.116-5.623-12.488-5.356-13.053-5.027-13.603-5.058-14.294-4.916-14.326-4.916-14.153-4.87-14.075-4.838-13.446-4.901-12.865-5.089-12.331-5.199-12.017-4.807-10.902-4.571-11.813-4.461-12.567-4.116-13.509-4.571-14.216M-6.409-16.447H-6.644C-6.833-15.944-7.037-15.41-6.974-14.86-6.629-14.876-6.739-15.426-6.566-15.693-6.582-15.897-6.55-16.117-6.377-16.211-5.859-15.52-6.582-14.75-6.346-13.949-6.252-13.713-6.236-13.446-6.032-13.242-5.655-13.808-5.686-14.593-5.592-15.315-5.702-15.755-5.938-16.321-6.409-16.447M-7.351-17.876C-7.555-18.033-7.697-18.332-7.964-18.332-8.247-17.813-8.592-17.185-8.341-16.588-8.137-17.028-7.776-17.436-7.917-17.955-7.776-18.002-7.681-17.813-7.618-17.719-7.446-16.965-8.451-15.708-7.289-15.237-6.912-16.054-6.817-17.106-7.351-17.876M-8.797-19.415C-9.095-19.651-9.268-20.09-9.676-20.058-9.629-19.508-9.943-18.897-9.739-18.363-9.645-18.803-9.322-19.034-9.545-19.69-9.435-19.895-9.432-19.709-9.322-19.677-8.662-18.955-9.55-17.876-8.797-17.153-8.592-17.499-8.576-17.955-8.482-18.363-8.372-18.756-8.498-19.148-8.797-19.415M-10.823-21.348C-10.964-21.395-11.09-21.489-11.247-21.489-11.404-21.096-11.409-20.346-11.252-19.953-11.174-20.189-10.99-20.334-11.069-20.82-11.021-20.914-11.042-21.148-10.933-21.049-10.249-20.429-11.027-19.51-10.556-18.819-10.195-17.892-10.085-19.148-9.99-19.415-9.802-20.295-10.242-20.861-10.823-21.348M-1.288-5.027C-1.477-4.54-2.246-4.241-2.073-3.66-1.885-4.147-1.178-4.414-1.288-5.027M-12.032-19.415C-12.802-19.604-13.289-20.468-13.572-21.081-14.326-21.096-14.828-21.662-15.237-22.243-16.258-21.991-16.588-23.342-17.609-23.311-18.158-23.578-18.661-23.971-19.164-24.363-20.028-24.348-20.876-24.662-21.457-25.384-22.101-25.212-22.761-25.495-23.342-25.714-23.688-26.233-24.175-25.62-24.662-25.871-25.117-26.044-25.557-26.233-25.95-26.578-26.814-26.123-27.756-26.594-28.51-27.003-29.217-26.578-30.16-26.955-30.835-27.269-31.448-26.908-32.327-26.814-32.956-27.191-33.191-27.175-33.333-26.971-33.552-26.924-34.197-26.767-34.966-26.547-35.547-26.955-36.239-26.248-37.291-26.437-38.155-26.516-38.736-25.934-39.585-26.044-40.385-25.981-40.92-25.227-41.972-25.259-42.836-25.227-43.433-24.426-44.344-24.191-45.318-24.206-45.883-23.342-46.795-22.965-47.8-22.997-47.925-22.431-48.523-22.039-48.931-21.677-49.261-21.332-49.983-21.646-50.109-21.112-50.376-20.389-51.146-20.075-51.758-19.792-52.025-18.85-52.984-18.221-53.879-17.986-53.863-17.028-54.853-16.305-55.575-15.913-55.544-14.954-56.581-14.451-57.083-13.808-57.068-12.881-57.727-12.095-58.481-11.656-58.262-10.65-58.827-9.881-59.612-9.237-59.581-8.404-59.864-7.713-60.476-7.132-60.335-6.362-60.476-5.514-60.963-4.901-60.665-4.414-60.869-3.66-61.073-3.142L-61.56-2.576C-61.12-1.791-61.529-.896-61.937-.236-61.529 .408-61.576 1.366-61.906 2.026-61.403 2.623-61.403 3.55-61.749 4.21L-61.874 4.367C-61.45 5.089-61.372 6-61.639 6.817-61.372 6.88-61.262 7.226-61.152 7.461-60.963 7.854-61.042 8.451-61.073 8.844-60.618 9.566-60.115 10.367-60.398 11.294-60.005 11.592-59.942 12.079-59.722 12.472-59.597 12.833-59.747 13.292-59.235 13.493-58.906 14.075-58.638 14.75-58.591 15.41-57.963 15.912-57.743 16.556-57.539 17.263-57.445 17.42-57.436 17.626-57.162 17.703-56.439 18.159-56.204 18.881-56.031 19.588-55.34 19.808-54.9 20.656-54.664 21.332-53.8 21.347-53.298 22.353-53.015 22.981-52.324 23.075-51.617 23.766-51.429 24.426-50.706 24.457-50.14 25.086-49.842 25.667-49.716 25.62-49.386 25.573-49.245 25.698-48.852 26.06-48.35 26.437-48.145 26.908-47.407 26.892-46.732 27.426-46.261 28.039-45.475 28.055-44.69 28.495-44.155 29.091-43.512 28.73-42.852 29.248-42.333 29.657-41.564 29.578-40.951 30.112-40.307 30.458-39.679 30.317-38.988 30.505-38.453 30.835-37.967 30.788-37.244 30.851-36.804 31.243-36.474 31.023-36.05 31.181-35.704 31.243-35.453 31.322-35.123 31.589-34.919 31.212-34.197 30.929-33.584 31.338-33.034 31.699-32.783 31.526-32.406 31.573-32.155 31.51V31.463C-31.558 31.338-30.961 31.526-30.348 31.73-29.468 31.023-28.275 31.338-27.222 31.463-26.562 30.489-25.243 31.699-24.583 30.599-23.908 30.395-23.075 30.364-22.368 30.489-21.96 29.201-20.326 29.955-19.761 28.824-19.148 28.259-18.253 28.369-17.42 28.306-16.949 27.269-15.755 26.735-14.703 26.609-14.404 25.589-13.32 25.164-12.409 24.944-12.064 24.049-11.09 23.358-10.257 22.981-9.865 22.023-9.048 21.127-8.074 20.687-8.011 19.776-7.273 19.038-6.487 18.614-6.503 17.656-6.001 16.792-5.168 16.274-5.105 16.038-5.089 15.944-5.089 15.677-4.948 14.797-3.754 14.31-4.037 13.305-3.833 12.692-3.738 12.032-3.252 11.53-3.456 10.603-2.969 9.77-2.498 9.032-2.749 8.09-2.435 7.1-1.932 6.33-2.183 5.545-2.199 4.665-1.853 3.911-2.231 2.969-1.979 1.964-1.634 1.084-2.168 .361-2.026-.691-1.885-1.587-2.576-2.199-2.529-3.267-2.45-4.116-3.016-4.697-3.126-5.624-2.953-6.456-3.581-6.99-3.927-7.791-3.848-8.561-4.508-9.174-4.681-9.975-4.791-10.792-5.576-11.137-5.891-11.954-6.001-12.708-6.896-13.038-7.084-13.98-7.398-14.703-7.933-15.143-8.576-15.724-8.749-16.399-9.802-16.698-9.865-18.049-10.87-18.284-11.341-18.599-11.404-19.368-12.032-19.415M-11.686-20.636C-11.686-21.531-11.891-22.573-12.786-22.965-13.472-22.83-13.148-21.866-13.085-21.348L-13.006-21.238C-12.944-21.63-12.672-22.142-12.908-22.488L-12.896-22.62C-12.032-22.07-12.755-20.735-12.001-20.059-11.797-20.028-11.848-20.066-11.738-20.176-11.704-20.281-11.664-20.39-11.686-20.636M-14.184-23.987C-14.404-24.159-14.703-24.285-15.017-24.175-15.284-23.735-15.158-23.091-14.938-22.667L-14.703-23.908C-14.561-23.845-14.42-23.625-14.373-23.452-14.373-22.714-14.279-22.039-13.807-21.489-13.682-21.489-13.525-21.505-13.54-21.646-13.446-22.51-13.603-23.421-14.184-23.987M-17.012-25.683C-17.106-25.652-17.247-25.746-17.31-25.604-17.122-25.086-17.059-24.52-16.933-23.987L-16.745-23.829C-16.823-24.301-16.572-24.772-16.933-25.117L-16.823-25.227C-15.865-24.599-16.336-23.327-15.582-22.589-15.425-22.573-15.315-22.667-15.315-22.808-15.331-23.987-15.818-25.275-17.012-25.683M-18.096-26.06C-18.551-26.343-18.991-26.751-19.572-26.578-19.4-25.966-19.195-25.243-18.897-24.631-18.944-25.133-18.661-25.918-19.227-26.28-19.164-26.421-19.022-26.296-18.928-26.248-18.143-25.526-18.41-24.254-17.499-23.688-17.373-23.672-17.232-23.688-17.232-23.829-17.279-24.677-17.515-25.432-18.096-26.06M-22.023-27.458C-22.117-27.112-21.771-26.814-21.756-26.437-21.504-25.997-21.253-25.495-20.782-25.227-21.206-25.777-20.986-26.625-21.567-27.081-21.159-27.222-21.049-26.704-20.86-26.468-20.531-25.84-20.216-24.976-19.415-24.772-19.478-25.337-19.714-25.934-19.949-26.468-20.546-27.034-21.222-27.489-22.023-27.458M-24.096-28.212C-24.269-28.118-24.395-28.243-24.552-28.086-24.332-27.348-23.892-26.594-23.311-26.091L-23.122-26.013C-23.594-26.562-23.374-27.395-24.018-27.866L-23.939-27.945C-23.059-27.285-22.871-26.044-21.756-25.793-21.897-26.233-22.211-26.625-22.368-27.034-22.683-27.631-23.342-28.243-24.096-28.212M-26.924-28.62C-27.128-28.463-26.876-28.322-26.845-28.165-26.421-27.662-26.154-26.987-25.573-26.657-25.793-27.097-25.824-27.961-26.437-28.353-26.091-28.369-25.824-27.882-25.573-27.678-25.18-27.207-24.725-26.437-24.065-26.327L-24.018-26.39C-24.143-26.877-24.458-27.191-24.662-27.646-25.07-28.495-26.06-28.683-26.924-28.62M-28.542-28.997C-28.824-29.013-29.107-29.06-29.327-28.887-29.201-28.243-28.761-27.568-28.243-27.112-28.133-27.034-27.961-26.955-27.819-27.034-28.133-27.489-28.243-28.086-28.73-28.401-28.761-28.447-28.84-28.479-28.84-28.542-28.699-28.699-28.479-28.526-28.322-28.463-27.74-27.945-27.301-26.924-26.437-27.081-26.798-27.882-27.505-28.997-28.542-28.997M-30.537-29.264C-30.992-29.406-31.526-29.202-31.903-28.997V-28.887C-31.385-28.369-31.024-27.662-30.317-27.458-30.568-27.929-30.835-28.479-31.291-28.778-30.207-28.762-30.05-27.222-28.887-27.269L-28.809-27.379C-29.327-28.055-29.547-29.092-30.537-29.264M-34.228-28.997-34.385-28.84C-34.024-28.275-33.411-27.756-32.877-27.411H-32.72C-33.097-27.819-33.238-28.51-33.819-28.62-33.851-28.667-33.93-28.699-33.93-28.778-32.846-28.966-32.39-27.128-31.259-27.521-31.181-27.866-31.636-28.039-31.825-28.353-32.5-28.887-33.348-29.453-34.228-28.997M-35.437-28.919C-35.925-28.966-36.364-28.872-36.757-28.699-36.946-28.479-36.682-28.346-36.498-28.176-36.196-27.939-35.767-27.081-35.108-27.269-35.547-27.599-35.83-28.228-36.38-28.401-36.286-28.683-35.956-28.479-35.783-28.432-35.108-28.008-34.479-27.474-33.71-27.301-33.678-27.395-33.521-27.489-33.631-27.599-34.118-28.086-34.621-28.997-35.437-28.919M-38.799-28.51C-38.972-28.401-39.333-28.495-39.317-28.165V-28.055C-38.736-27.694-38.234-27.097-37.589-26.845-37.841-27.332-38.077-27.914-38.689-28.055-38.469-28.275-38.139-27.992-37.888-27.866-37.448-27.269-36.867-26.845-36.113-27.034-35.846-27.144-35.973-27.309-36.16-27.521-36.82-28.369-37.7-28.73-38.799-28.51M-40.983-27.976C-41.391-27.866-41.847-27.772-42.113-27.411-41.344-27.018-40.716-26.029-39.663-26.327L-39.632-26.358C-40.197-26.767-40.684-27.395-41.47-27.301V-27.379C-40.323-27.741-39.553-26.735-38.453-26.767L-38.343-26.924C-39.145-27.458-39.867-28.416-40.983-27.976M-43.433-27.081C-43.873-26.955-44.313-26.767-44.595-26.358-43.889-26.107-43.292-25.573-42.459-25.604-42.977-25.84-43.339-26.5-43.967-26.516-43.779-26.594-43.559-26.673-43.355-26.578-42.553-26.405-41.768-25.604-40.873-26.17V-26.327C-41.611-26.845-42.428-27.411-43.433-27.081M-46.669-25.824C-46.904-25.683-47.234-25.447-47.282-25.149-46.496-25.196-45.962-24.615-45.161-24.662-45.632-24.929-46.088-25.463-46.716-25.306-46.747-25.337-46.81-25.369-46.795-25.416-46.543-25.573-46.229-25.573-45.915-25.573-45.161-25.4-44.533-24.96-43.653-25.07-43.574-25.196-43.307-25.196-43.401-25.416-44.234-26.17-45.648-26.201-46.669-25.824M-49.575-23.908C-49.701-23.814-49.653-23.656-49.685-23.531L-48.114-23.499C-47.886-23.46-47.637-23.355-47.374-23.526-47.767-23.62-48.397-24.128-48.868-23.829-48.899-23.876-48.732-23.933-48.701-24.012-47.633-24.577-46.528-23.107-45.695-24.363-46.182-24.568-46.779-24.552-47.234-24.819-48.098-24.929-48.946-24.552-49.575-23.908M-51.271-22.777C-51.538-22.557-51.853-22.29-52.025-21.991-51.209-21.787-50.203-21.709-49.355-21.913L-49.308-21.944C-49.983-22.023-50.596-22.431-51.319-22.18-51.35-22.211-51.186-22.31-51.091-22.357-50.29-22.702-49.544-22.274-48.742-22.51-48.617-22.62-48.397-22.73-48.365-22.965-49.198-23.468-50.455-23.185-51.271-22.777M-53.722-20.861C-53.929-20.676-54.272-20.484-54.177-20.138-53.423-19.84-52.402-20.044-51.617-20.248-52.214-20.248-52.874-20.735-53.455-20.405L-53.535-20.426C-53.236-20.866-52.575-20.703-52.104-20.813-51.507-20.75-51.004-20.908-50.517-21.112-50.36-21.52-50.894-21.41-51.083-21.536-52.104-21.756-52.968-21.363-53.722-20.861M-55.952-18.661C-56.031-18.504-56.11-18.284-56.031-18.096-55.277-18.284-54.492-18.347-53.722-18.473-54.177-18.724-54.821-18.834-55.308-18.52-55.356-18.803-54.835-18.915-54.743-18.928-53.863-19.038-52.826-18.944-52.261-19.651-53.376-19.667-55.12-19.918-55.952-18.661M-57.492-16.745C-57.476-16.509-57.712-16.179-57.382-16.07-56.549-16.211-55.56-16.022-54.963-16.666-55.45-16.478-56.141-17.075-56.659-16.588L-56.738-16.666C-56.251-17.295-55.198-16.839-54.586-17.342-54.362-17.497-54.209-17.593-54.209-17.844-54.601-18.002-55.026-17.844-55.418-17.844-56.219-17.75-57.005-17.53-57.492-16.745M-58.136-15.583C-58.717-15.19-59.345-14.593-59.235-13.886-59.314-13.569-58.45-13.902-58.057-13.917-57.57-13.933-57.146-14.122-56.785-14.451-57.193-14.389-57.9-14.609-58.293-14.263L-58.381-14.252C-57.895-15.085-56.801-14.938-56.062-15.347-55.905-15.473-55.905-15.677-55.842-15.834-56.581-15.928-57.398-15.724-58.136-15.583M-60.209-12.378-60.508-11.545C-59.738-11.593-58.953-11.687-58.403-12.19-58.843-12.095-59.345-12.048-59.754-12.032-59.141-12.771-57.932-12.441-57.382-13.273-57.239-13.53-57.239-13.609-57.303-13.698-58.324-13.478-59.659-13.493-60.209-12.378M-61.607-9.503C-61.513-9.315-61.325-9.237-61.152-9.174-60.508-9.284-59.879-9.472-59.345-9.881-59.864-10.006-60.523-9.849-60.995-9.582L-61.042-9.614C-60.429-10.352-59.298-10.132-58.811-11.059-58.796-11.2-58.701-11.31-58.733-11.467L-60.429-11.169C-60.68-11.074-60.696-11.027-60.806-10.933-61.215-10.556-61.733-10.101-61.607-9.503M-62.361-7.666C-62.545-6.792-62.361-6.676-62.361-6.676-61.607-6.943-60.775-7.147-60.241-7.807-60.743-7.571-61.387-7.713-61.796-7.241-61.823-7.462-61.757-7.504-61.678-7.567-61.066-8.148-59.911-8.137-59.832-9.126-60.728-8.891-62.177-8.54-62.361-7.666M-62.927-5.357C-62.958-5.011-63.162-4.681-63.037-4.304-62.408-4.712-61.513-4.697-61.12-5.404-61.529-5.137-62.079-5.184-62.471-4.838L-62.503-4.87C-62.094-5.718-60.351-5.592-60.853-6.833-61.576-6.425-62.707-6.362-62.927-5.357M-63.335-3.362C-63.539-2.922-63.587-2.341-63.445-1.854-62.88-2.435-62.016-2.529-61.497-3.205-61.984-2.953-62.55-2.906-63.005-2.576-62.943-3.566-61.623-3.283-61.23-4.116-61.199-4.304-61.246-4.477-61.372-4.603-62.032-4.21-63.021-4.194-63.335-3.362M-63.712 .817C-63.241 .377-62.378-.092-61.954-.658-61.954-.658-61.893-.825-62.094-.754-62.296-.684-62.913-.579-63.176-.132-63.281 .025-63.257-.016-63.304-.079-63.319-1.131-61.874-1.163-61.796-2.074-62.456-2.293-63.228-1.498-63.414-1.178-63.791-.581-63.948 .157-63.712 .817M-63.701 3.349-63.634 3.204C-63.131 2.655-62.298 2.403-62.063 1.696-62.44 2.042-62.927 2.168-63.304 2.513L-63.215 2.193C-62.775 1.627-62.016 1.241-61.906 .44-61.906 .236-62.032-.079-62.283 .063-62.77 .628-63.665 .895-63.759 1.696-63.916 2.168-64.003 2.718-63.701 3.349M-63.492 5.718C-62.974 5.231-62.377 4.634-62.063 3.99-62.408 4.32-62.911 4.414-63.147 4.854-63.304 4.712-63.178 4.508-63.115 4.367-62.723 3.77-61.859 3.314-62.063 2.513-62.754 2.717-63.492 3.409-63.712 4.1-63.775 4.602-63.759 5.262-63.492 5.718M-63.335 7.603-63.037 8.215C-62.723 7.634-62.157 7.1-61.906 6.472-62.377 6.629-62.565 7.084-62.848 7.414-62.974 7.304-62.829 7.023-62.782 6.882-62.53 6.191-61.812 5.733-62.016 4.901-62.072 4.754-62.072 4.583-62.251 4.712-62.848 5.576-63.759 6.409-63.335 7.603M-62.848 9.943C-62.754 10.289-62.723 10.65-62.471 10.917-62.157 10.1-61.403 9.393-61.34 8.435-61.764 8.828-61.953 9.362-62.283 9.755-62.377 8.828-61.356 8.137-61.639 7.226-61.702 7.147-61.812 7.069-61.906 7.147-62.534 7.948-63.194 8.828-62.848 9.943M-61.937 12.739-61.749 12.928C-61.403 12.425-61.105 11.86-60.806 11.294-61.23 11.388-61.403 11.86-61.607 12.127-61.827 11.75-61.529 11.373-61.419 11.043-61.199 10.556-60.743 10.226-60.963 9.598-61.026 9.441-61.073 9.236-61.262 9.158-61.89 10.179-62.785 11.561-61.937 12.739M-61.271 14.303C-61.067 14.508-60.979 14.813-60.665 14.954-60.382 14.483-60.304 13.87-59.989 13.368-59.931 13.239-60.005 13.195-60.021 13.116-60.147 13.415-60.571 13.745-60.665 14.121-60.9 13.949-60.677 13.655-60.601 13.305-60.35 12.802-60.098 12.069-60.522 11.597-60.994 12.367-61.9 13.282-61.271 14.303M-60.209 16.886C-60.021 17.027-59.832 17.373-59.612 17.185L-59.487 16.541C-59.487 15.991-58.874 15.567-59.157 15.033-59.518 15.331-59.534 15.818-59.754 16.195-59.927 16.195-59.8 15.85-59.8 15.709-59.784 14.986-59.174 14.432-59.708 13.725L-59.942 13.792C-60.319 14.703-60.853 15.912-60.209 16.886M-58.701 19.399-58.214 19.824C-58.167 19.007-58.01 18.159-57.916 17.326-58.183 17.734-58.293 18.221-58.403 18.693-58.576 18.708-58.476 18.482-58.539 18.388-58.508 17.461-58.042 16.525-58.67 15.708-58.854 15.801-58.87 16.137-59.012 16.326-59.499 17.253-59.408 18.598-58.701 19.399M-56.706 21.74C-56.675 21.049-56.643 20.342-56.439 19.714L-56.596 19.588C-56.801 19.934-56.958 20.358-56.895 20.766L-56.91 20.845C-57.287 20.342-56.895 19.776-57.036 19.148-57.115 18.755-57.099 18.3-57.539 18.08-57.712 19.274-58.309 21.19-56.706 21.74M-55.151 23.594C-55.167 22.918-55.01 22.258-54.853 21.63L-54.963 21.363C-55.214 21.709-55.45 22.18-55.34 22.651L-55.373 22.723C-55.908 21.922-55.183 20.797-55.905 20.122-56.07 20.004-56.083 20.017-56.141 20.044-56.345 20.609-56.345 21.127-56.439 21.74-56.549 22.588-55.764 23.185-55.151 23.594M-54.397 24.348C-54.115 24.677-53.863 25.149-53.423 25.29-53.329 24.583-53.266 23.735-53.423 22.981-53.565 23.342-53.785 23.813-53.612 24.238L-53.69 24.3C-54.256 23.531-53.423 22.195-54.554 21.74-54.837 22.604-54.868 23.546-54.397 24.348M-52.968 25.557C-52.811 26.075-52.308 26.327-51.915 26.688H-51.727C-51.805 25.856-51.538 25.039-51.947 24.348-52.025 24.772-52.151 25.353-51.994 25.808-52.12 26.028-52.261 25.746-52.324 25.667-52.481 24.882-52.45 24.033-52.936 23.405-52.779 24.112-53.078 24.787-52.968 25.557M-51.429 26.5C-51.393 26.768-51.429 26.735-51.319 26.877-51.02 27.332-50.549 27.662-50.062 27.819-50.313 27.238-50.046 26.437-50.297 25.856-50.502 26.154-50.573 26.662-50.448 26.992L-50.486 27.018C-50.91 26.562-50.753 25.808-50.894 25.211-51.02 24.976-51.24 24.756-51.507 24.725-51.366 25.369-51.444 25.856-51.429 26.5M-48.899 28.793C-48.695 28.934-48.491 29.123-48.224 29.139L-48.444 28.306C-48.538 28.353-48.413 28.557-48.554 28.604-49.355 27.976-48.805 26.798-49.386 26.075-49.481 26.06-49.544 25.981-49.653 25.997L-49.842 26.233C-49.936 27.254-49.826 28.259-48.899 28.793M-47.423 29.516C-46.999 29.955-46.433 30.238-45.852 30.379L-45.774 30.222C-45.946 29.626-46.307 29.013-46.48 28.385-46.638 28.777-46.559 29.28-46.418 29.657L-46.48 29.735C-47.36 29.107-46.81 27.756-47.768 27.206L-48.035 27.254C-47.894 27.976-48.083 28.95-47.423 29.516M-44.064 31.287-43.512 31.353C-43.7 30.599-44.061 29.908-44.454 29.248-44.344 29.688-44.564 30.411-44.108 30.788L-44.187 30.866C-44.831 30.254-45.035 29.453-45.397 28.714-45.522 28.542-45.726 28.416-45.915 28.526L-45.942 28.686C-45.44 29.66-45.478 31.099-44.064 31.287M-42.094 32.075C-41.89 32.044-41.422 32.029-41.579 31.777L-42.409 30.131C-42.378 30.54-42.459 31.102-42.145 31.401L-42.223 31.463C-42.883 30.851-42.927 29.901-43.696 29.383-43.822 29.697-43.684 30.003-43.59 30.301-43.197 31.023-42.895 31.777-42.094 32.075M-41.391 31.699C-40.983 32.202-40.403 32.504-39.821 32.614-39.821 32.614-39.609 32.703-39.742 32.343-39.874 31.983-40.134 31.243-40.527 30.835-40.621 31.212-40.417 31.573-40.228 31.887-40.527 31.887-40.716 31.479-40.904 31.243-40.983 30.851-41.218 30.427-41.627 30.269H-41.815C-41.894 30.788-41.564 31.228-41.391 31.699M-38.6 32.916C-38.206 33.047-37.888 33.144-37.589 32.971-37.935 32.327-38.265 31.636-38.878 31.133-38.878 31.652-38.453 31.982-38.234 32.406-38.249 32.469-38.185 32.527-38.232 32.574-38.766 31.962-39.145 31.071-39.93 30.709-39.977 31.636-39.244 32.382-38.6 32.916M-36.836 33.16C-36.537 33.238-36.097 33.537-35.862 33.207-36.097 32.626-36.411 32.092-36.804 31.589-36.867 31.51-36.977 31.558-37.056 31.542-37.056 32.045-36.82 32.453-36.537 32.83-37.024 32.751-37.291 32.107-37.558 31.699-37.747 31.589-37.872 31.322-38.124 31.322-37.872 32.013-37.637 32.909-36.836 33.16M-33.741 33.505C-34.102 32.956-34.632 32.281-35.119 31.826-35.088 32.061-35.08 32.417-34.791 32.745-34.728 32.792-34.668 32.861-34.652 32.94-34.825 33.018-34.948 32.811-35.119 32.653-35.527 32.213-35.799 31.699-36.38 31.542-36.27 32.076-35.893 32.594-35.595 33.097-35.076 33.458-34.307 33.82-33.741 33.505M-31.636 33.615C-31.652 32.987-32.437 32.72-32.846 32.264-32.987 32.751-32.186 32.956-32.092 33.396-33.066 33.396-33.474 31.935-34.464 31.919L-34.573 32.107C-33.867 33.081-32.924 34.165-31.636 33.615M-29.076 33.537-28.95 33.427V33.285L-30.458 32.264-30.584 32.296C-30.348 32.814-29.845 32.971-29.484 33.317-30.458 33.254-31.118 32.186-32.092 31.997-32.327 31.966-32.28 32.264-32.233 32.406-31.306 33.018-30.38 34.244-29.076 33.537M-26.578 33.427C-26.295 33.411-26.044 33.317-25.824 33.128L-25.871 32.971C-26.484 32.532-27.081 32.029-27.788 31.809-27.474 32.406-26.845 32.579-26.39 33.018H-26.657C-27.693 32.704-28.589 31.809-29.751 31.997-29.076 33.081-27.819 33.38-26.578 33.427M-23.374 32.532-23.719 32.374C-23.751 32.469-23.672 32.5-23.641 32.563L-23.751 32.673C-24.615 32.343-25.447 31.966-26.327 31.699-26.515 31.699-26.735 31.668-26.892 31.809-26.61 32.296-25.965 32.532-25.494 32.83-24.803 33.003-23.923 33.018-23.374 32.532M-20.295 31.542C-21.002 31.322-21.944 31.715-22.588 31.212-22.934 31.165-23.295 31.133-23.641 31.086-23.813 31.149-24.049 31.259-24.175 31.432V31.51C-23.107 32.06-21.222 32.736-20.295 31.542M-22.4 30.866C-22.211 30.976-21.991 31.133-21.756 31.023-21.976 30.961-22.148 30.725-22.4 30.866M-18.096 30.945C-17.844 30.725-17.577 30.489-17.687 30.144-18.991 31.071-20.436 29.814-21.803 30.301-21.944 30.584-21.536 30.694-21.379 30.835-20.436 31.322-19.101 31.353-18.096 30.945M-14.97 29.06C-16.022 29.516-17.483 29.17-18.661 29.06-18.787 29.201-19.054 29.201-19.085 29.437-18.693 29.798-18.111 29.657-17.656 29.845-16.823 29.861-15.645 29.767-14.97 29.06M-12.519 27.128C-13.556 28.306-15.52 27.316-16.588 28.259-15.975 28.479-15.127 28.479-14.404 28.416-13.698 28.196-12.818 27.882-12.519 27.128M-10.179 25.479C-10.854 25.494-11.357 26.185-12.142 26.044-12.802 26.123-13.713 25.934-13.996 26.641L-13.006 26.798C-11.954 26.782-10.807 26.531-10.179 25.479M-7.995 23.405C-7.933 23.374-7.98 23.295-7.964 23.248-8.467 23.169-8.482 23.876-8.938 24.002-9.786 24.379-10.619 24.049-11.467 24.426-11.64 24.567-11.75 24.756-11.813 24.944-10.336 25.133-8.765 24.819-7.995 23.405M-6.032 20.766V20.719C-6.283 20.86-6.33 21.19-6.534 21.41-7.398 22.038-8.624 21.834-9.503 22.463-9.645 22.62-9.676 22.84-9.661 23.059-9.048 23.091-8.278 23.044-7.697 22.761-6.99 22.195-6.362 21.52-6.032 20.766M-8.043 21.284-8.105 21.41C-7.885 21.363-7.54 21.363-7.289 21.253-7.508 21.096-7.807 21.222-8.043 21.284M-4.492 18.96C-4.367 18.755-4.414 18.473-4.383 18.237-4.618 18.897-5.294 19.368-5.969 19.557-6.534 19.792-7.54 19.714-7.587 20.53-7.226 20.703-6.755 20.53-6.409 20.53-6.248 20.477-6.166 20.487-6.103 20.424-5.349 20.314-4.775 19.651-4.492 18.96M-3.094 15.787H-3.142C-3.267 16.226-3.471 16.635-3.895 16.949-4.492 17.279-5.152 17.436-5.812 17.64-6.079 17.766-5.906 18.206-6.032 18.394-5.309 18.394-4.712 18.111-4.116 17.781-3.644 17.169-3.157 16.603-3.094 15.787M-2.419 14.734C-2.183 14.357-2.042 13.949-2.01 13.493-2.136 14.75-3.628 14.64-4.414 15.253L-4.524 15.975C-3.817 15.582-2.843 15.567-2.419 14.734M-3.44 14.31C-3.126 14.247-2.796 14.184-2.576 13.902-2.906 13.933-3.204 14.121-3.44 14.31M-1.178 11.718C-1.147 11.467-1.068 11.137-1.1 10.807-1.351 10.917-1.681 11.09-1.964 11.231-2.372 11.388-2.796 11.483-3.094 11.86-2.655 11.577-1.901 11.703-1.477 11.184-1.319 11.341-1.586 11.514-1.634 11.671-2.356 12.331-3.503 12.708-3.66 13.792-2.592 13.588-1.367 12.896-1.178 11.718M-.565 9.268C-.534 8.859-.314 8.341-.613 7.98-1.257 8.482-1.964 8.985-2.498 9.598-1.775 9.582-1.115 8.985-.801 8.404-.722 8.372-.691 8.435-.644 8.467-.832 9.284-1.539 9.88-2.231 10.289-2.513 10.54-2.937 10.807-2.796 11.263-1.916 10.901-.817 10.305-.565 9.268M0 5.906C-.063 5.733-.016 5.514-.188 5.388-.801 5.718-1.414 6.173-1.853 6.739-1.319 6.55-.817 6.267-.346 5.906-.581 6.755-1.586 7.241-2.073 7.948-2.278 8.184-2.293 8.467-2.152 8.734-1.052 8.263-.125 7.1 0 5.906M.063 2.78C0 2.702 .063 2.403-.125 2.56-.613 2.985-1.052 3.456-1.477 3.88V3.99C-.989 3.77-.55 3.33-.157 2.969-.33 4.068-1.775 4.728-1.743 5.953-1.555 6.142-1.398 5.812-1.21 5.765-.393 4.995 .236 3.974 .063 2.78M.299 2.293C.691 2.655 .503 3.346 .44 3.801 .424 4.335-.33 4.854 .22 5.341 .408 6.157 .299 7.131-.424 7.713 .094 8.671-.518 9.629-.911 10.43-.66 11.467-.958 12.456-1.665 13.179-1.618 14.043-2.058 14.781-2.686 15.41-2.733 16.446-3.204 17.342-3.958 18.049-4.037 19.101-4.712 20.059-5.655 20.578-5.922 21.52-6.629 22.258-7.43 22.918-7.508 24.065-8.592 24.615-9.472 25.102-9.786 26.107-10.807 26.877-11.844 27.065-12.346 27.882-13.195 28.4-14.027 28.762-14.169 28.777-14.31 28.919-14.263 29.091-14.97 29.861-15.991 30.081-17.012 30.222-17.64 31.275-18.771 31.589-19.949 31.589-20.641 32.39-21.803 32.689-22.777 32.484-23.468 33.191-24.442 33.254-25.416 33.285-26.107 34.087-27.395 33.662-28.243 33.505-29.013 34.307-30.175 34.087-31.071 33.694-31.762 34.197-32.798 34.039-33.521 33.694-34.102 34.181-34.888 33.772-35.437 33.505-35.94 33.741-36.537 33.568-36.993 33.348-37.7 33.584-38.595 33.317-39.207 32.861L-40.119 32.909C-40.59 32.736-41.045 32.5-41.438 32.217-42.129 32.594-42.773 31.935-43.355 31.62-44.203 31.856-44.847 31.196-45.475 30.678-46.15 30.788-46.763 30.474-47.282 30.081-47.706 29.908-47.816 29.139-48.365 29.39-48.899 29.123-49.449 28.777-49.81 28.227-50.392 28.227-50.831 27.803-51.193 27.395-51.4 27.213-51.454 26.979-51.748 26.979-51.879 26.979-51.945 26.952-52.072 26.908-52.591 26.625-53.031 26.123-53.266 25.62-54.052 25.416-54.492 24.63-54.9 24.002-55.308 23.986-55.481 23.594-55.842 23.405-56.157 23.028-56.628 22.635-56.706 22.117-57.413 21.819-57.9 21.033-58.057 20.311-59 19.714-59.487 18.724-59.675 17.703-60.492 17.2-60.743 16.321-60.775 15.41-61.387 14.907-61.702 14.121-61.796 13.336-62.503 12.928-62.346 12.048-62.471 11.42-63.335 10.76-63.162 9.503-63.068 8.514-63.744 7.917-63.681 6.959-63.571 6.142-64.058 5.435-64.215 4.351-63.869 3.534-64.278 2.796-64.089 1.853-63.869 1.084-64.262 .361-64.136-.707-63.681-1.367-63.916-2.168-63.932-3.267-63.382-3.927-63.492-4.823-63.115-5.702-62.581-6.409-62.848-7.273-62.534-8.2-61.827-8.75-62.032-9.676-61.733-10.619-60.963-11.2-60.963-12.19-60.351-13.069-59.534-13.572-59.628-14.577-58.906-15.504-58.026-15.991-57.979-16.918-57.209-17.687-56.408-18.064-56.251-18.913-55.465-19.62-54.664-19.871-54.413-20.861-53.408-21.41-52.559-21.803-52.465-22.086-52.308-22.416-52.104-22.589-51.601-23.028-51.02-23.421-50.297-23.421-49.858-24.285-48.915-24.913-47.988-25.117-47.187-25.997-46.088-26.296-44.972-26.516-44.485-27.395-43.292-27.269-42.38-27.489-41.815-28.29-40.716-28.29-39.742-28.353-39.082-28.935-38.061-28.84-37.213-28.73-36.584-29.359-35.485-29.296-34.683-29.076-34.432-29.343-34.134-29.5-33.788-29.531-33.144-29.626-32.704-29.217-32.123-29.154-31.463-29.704-30.395-29.469-29.673-29.186-28.824-29.72-28.023-29.029-27.269-28.778-26.484-29.17-25.463-28.84-24.772-28.353-23.908-28.558-23.075-28.243-22.431-27.678-21.473-27.945-20.641-27.442-19.981-26.893L-19.462-27.003C-18.74-26.908-18.158-26.39-17.656-25.871-16.666-26.091-15.881-25.306-15.347-24.552-14.53-24.52-13.855-24.049-13.352-23.421-12.582-23.28-11.765-22.761-11.577-21.944-10.76-21.85-10.085-20.986-9.661-20.326-8.875-20.232-8.514-19.353-8.153-18.787-7.21-18.661-7.053-17.593-6.597-17.012-5.78-16.698-5.608-15.771-5.278-15.08-4.964-15.001-4.744-14.672-4.461-14.514-4.257-14.137-4.068-13.76-4.037-13.321-3.267-12.755-2.906-11.907-2.764-11.011-1.901-10.477-1.932-9.425-1.696-8.561-.942-7.933-.848-6.912-.88-5.969-.188-5.184 .22-4.069-.236-3.063 .22-2.372 .267-1.367 .063-.534 .66 .236 .393 1.366 .299 2.293" fill="#1d4164"/>
<path transform="matrix(1,0,0,-1,175.0022,230.52912)" d="M0 0C-.041-.213-.675-2.378-.678-2.376-.716-2.483-.817-2.741-.816-2.742-3.184-8.936-9.451-13.375-16.795-13.375-24.135-13.375-30.4-8.939-32.77-2.749-32.766-2.747-32.761-2.743-32.756-2.741-33.213-1.725-33.528-.24-33.574 0-33.677 .526-33.431 .748-33.431 .748-32.574 1.001-31.002 1.553-30.995 1.552-31.119 .47-30.804-.6-30.493-1.601-30.489-1.6-30.484-1.598-30.479-1.596-28.567-7.03-23.157-10.958-16.795-10.958-10.431-10.958-5.045-7.13-3.134-1.694-3.125-1.698-2.455 .47-2.579 1.552-2.572 1.553-1.001 1.001-.143 .748-.143 .748 .103 .526 0 0M-33.479 5.303C-33.224 6.418-32.634 7.408-32.331 8.507-31.98 6.968-32.889 5.523-32.14 4.093-32.076 3.999-32.073 3.959-32.009 3.849-31.842 5.941-30.033 6.836-30.097 8.674V9.354C-29.22 7.61-30.449 6.057-30.146 4.203-29.859 2.853-29.327 1.591-29.494-.026-30.276 .445-29.613 1.942-30.777 1.989-31.575 1.816-32.458 1.501-33.125 1.283-32.631 2.76-33.782 3.858-33.479 5.303M-30.444-.513C-30.444-.513-30.739 .56-30.726 1.001-30.713 1.424-30.517 1.636-30.315 .924-30.148 .333-30.084 .269-29.725-.231ZM-3.849-.231C-3.49 .269-3.426 .333-3.259 .924-3.058 1.636-2.861 1.424-2.848 1.001-2.835 .56-3.13-.513-3.13-.513ZM-4.08-.026C-4.247 1.591-3.715 2.853-3.428 4.203-3.125 6.057-4.354 7.61-3.477 9.354V8.674C-3.541 6.836-1.732 5.941-1.565 3.849-1.501 3.959-1.498 3.999-1.435 4.093-.685 5.523-1.594 6.968-1.243 8.507-.94 7.408-.35 6.418-.095 5.303 .208 3.858-.943 2.76-.449 1.283-1.116 1.501-2 1.816-2.797 1.989-3.961 1.942-3.299 .445-4.08-.026M-.223 1.8C-.287 3.135 .591 4.408 .049 5.758-.303 7.047-1.068 8.177-1.243 9.56-1.865 8.115-1.18 6.497-1.403 4.926L-1.463 4.76C-2.053 6.127-3.253 7.361-3.285 8.963L-3.205 10.125C-4.911 8.507-3.333 6.088-3.667 4.093-4.162 2.805-4.401 1.407-4.496-.053-4.311-.667-3.641-.601-3.195-.821-3.207-.983-3.317-1.277-3.322-1.275-5.121-6.703-10.48-10.651-16.795-10.651-23.085-10.651-28.427-6.732-30.247-1.336-30.247-1.337-30.248-1.337-30.249-1.337-30.304-1.169-30.366-1.003-30.379-.821-29.933-.601-29.263-.667-29.078-.053-29.173 1.407-29.412 2.805-29.907 4.093-30.242 6.088-28.663 8.507-30.369 10.125L-30.29 8.963C-30.321 7.361-31.521 6.127-32.112 4.76L-32.171 4.926C-32.395 6.497-31.709 8.115-32.331 9.56-32.506 8.177-33.272 7.047-33.623 5.758-34.165 4.408-33.288 3.135-33.352 1.8-33.241 .962-34.076 1.292-33.869-.09-33.696-.978-33.443-1.913-33.09-2.765-33.091-2.766-33.093-2.768-33.094-2.769-30.706-9.122-24.302-13.682-16.795-13.682-9.342-13.682-2.979-9.188-.55-2.907-.548-2.909-.546-2.91-.544-2.911-.159-2.021 .112-1.029 .295-.09 .502 1.292-.333 .962-.223 1.8" fill="#1d4164"/>
<path transform="matrix(1,0,0,-1,139.1346,227.52338)" d="M0 0C0 10.517 8.556 19.073 19.073 19.073 29.59 19.073 38.146 10.517 38.146 0 38.146-10.517 29.59-19.073 19.073-19.073 8.556-19.073 0-10.517 0 0M-.628 0C-.628-10.863 8.21-19.701 19.073-19.701 29.936-19.701 38.774-10.863 38.774 0 38.774 10.863 29.936 19.701 19.073 19.701 8.21 19.701-.628 10.863-.628 0" fill="#1d4164"/>
<path transform="matrix(1,0,0,-1,130.83,227.52338)" d="M0 0C0 15.096 12.282 27.378 27.378 27.378 42.474 27.378 54.755 15.096 54.755 0 54.755-15.096 42.474-27.378 27.378-27.378 12.282-27.378 0-15.096 0 0M-.942 0C-.942-15.616 11.762-28.32 27.378-28.32 42.993-28.32 55.698-15.616 55.698 0 55.698 15.616 42.993 28.32 27.378 28.32 11.762 28.32-.942 15.616-.942 0" fill="#1d4164"/>
<path transform="matrix(1,0,0,-1,145.3419,244.55512)" d="M0 0-.309-1.503 1.005-2.653-.64-2.616-1.197-4.019-1.906-2.493-3.564-2.21-2.356-1.304-2.823 .273-1.369-.692Z" fill="#1d4164"/>
<path transform="matrix(1,0,0,-1,170.9853,244.45172)" d="M0 0 .309-1.503-1.005-2.653 .64-2.615 1.197-4.018 1.906-2.493 3.564-2.21 2.356-1.304 2.823 .273 1.369-.692Z" fill="#1d4164"/>
<path transform="matrix(1,0,0,-1,160.5058,227.97498)" d="M0 0-.11-.11V.22C-.047 .157 .031 .094 0 0" fill="#1d4164"/>
<path transform="matrix(1,0,0,-1,167.6777,231.3595)" d="M0 0C-.32 .6-.783 2.069-.811 3.098-.811 3.13-.812 3.161-.812 3.192-.812 4.36-.242 5.159-.236 5.167-.235 5.168 .22 5.771 .22 5.771L-.319 6.312C-.688 6.681-2.404 8.861-2.55 9.037-2.551 9.037-3.004 9.581-3.004 9.581L-3.508 9.319-3.632 9.255C-4.242 8.938-5.975 8.06-6.655 7.801-7.138 7.617-8.345 7.498-9.249 7.45-10.152 7.498-11.359 7.617-11.843 7.801-12.523 8.06-14.256 8.938-14.866 9.255-14.866 9.255-15.494 9.581-15.494 9.581L-15.947 9.037C-16.094 8.861-17.809 6.681-18.177 6.314-18.177 6.313-18.719 5.772-18.719 5.772L-18.257 5.161C-18.256 5.159-17.686 4.36-17.686 3.192-17.686 3.161-17.686 3.13-17.687 3.098-17.714 2.069-18.177 .6-18.498 0-18.748-.469-18.98-1.485-18.98-2.606-18.98-3.804-18.715-5.121-17.925-6.02-16.85-7.244-15.286-7.978-13.145-8.264-13.144-8.264-13.07-8.273-13.07-8.273-12.22-8.386-10.799-8.574-10.033-9.637-10.033-9.637-9.972-9.721-9.954-9.747-9.946-9.759-9.926-9.788-9.907-9.817-9.904-9.823-9.875-9.879-9.832-9.964-9.676-9.939-9.523-9.928-9.372-9.927L-9.809-9.359C-10.669-8.242-12.143-8.047-13.025-7.931L-13.099-7.921C-13.099-7.921-13.099-7.921-13.099-7.921-15.154-7.647-16.648-6.951-17.666-5.792-18.455-4.894-18.621-3.578-18.621-2.633-18.621-1.667-18.441-.628-18.193-.163-17.864 .454-17.371 1.967-17.342 3.089L-17.34 3.197C-17.34 4.265-17.75 5.014-17.927 5.286L-18.234 5.762-17.838 6.166C-17.328 6.685-16.07 8.344-15.772 8.706L-15.41 9.146-14.903 8.885C-13.86 8.348-12.541 7.697-11.966 7.478-11.559 7.323-10.636 7.188-9.497 7.118L-9.479 7.116-9.247 7.107C-9.247 7.107-9.017 7.117-9 7.118-7.862 7.188-6.939 7.323-6.532 7.478-5.957 7.697-4.638 8.348-3.595 8.885L-3.087 9.146-2.725 8.706C-2.428 8.344-1.17 6.685-.66 6.166L-.263 5.762-.571 5.286C-.747 5.014-1.157 4.265-1.157 3.197L-1.156 3.089C-1.156 3.089-1.156 3.089-1.156 3.089-1.126 1.967-.634 .454-.305-.163-.057-.628 .123-1.667 .123-2.633 .123-3.578-.042-4.894-.832-5.792-1.85-6.951-3.344-7.647-5.399-7.921L-5.473-7.931C-5.473-7.931-5.473-7.931-5.473-7.931-6.354-8.047-7.829-8.242-8.689-9.359L-9.131-9.933C-8.977-9.941-8.825-9.956-8.671-9.974-8.625-9.884-8.594-9.823-8.591-9.817-8.571-9.788-8.552-9.759-8.543-9.747-8.531-9.729-8.464-9.637-8.464-9.637-7.699-8.574-6.277-8.386-5.428-8.273-5.428-8.273-5.354-8.264-5.354-8.264-3.212-7.978-1.648-7.244-.572-6.02 .218-5.121 .482-3.804 .482-2.606 .482-1.485 .25-.469 0 0" fill="#1d4164"/>
<path transform="matrix(1,0,0,-1,162.4669,234.02082)" d="M0 0-.942 1.21H-.88C-.55 .817-.157 .44 .063 0ZM-.99-1.162C-1.634-1.367-1.869-.581-2.341-.267L-2.608 .456C-2.293 .754-1.964 .927-1.508 .801L-.534-.33C-.424-.754-.691-.99-.99-1.162M-5.891-3.911C-6.063-4.006-6.268-4.053-6.487-4.037V-3.801C-5.168-2.718-3.739-1.775-2.498-.565-2.356-.66-2.168-.801-2.121-.974-3.424-1.838-4.665-2.859-5.891-3.911M-1.932-3.88C-1.869-4.1-1.995-4.367-2.231-4.477-3-4.288-3.33-3.44-3.817-2.906-3.613-2.718-3.33-2.608-3.063-2.718-2.655-3.016-2.183-3.44-1.932-3.88M-5.466-.785C-5.529-.675-5.404-.55-5.278-.597-4.932-1.005-4.508-1.288-4.147-1.696-4.21-1.838-4.367-1.916-4.493-1.964ZM-5.843-.707-6.487-.408C-6.315-.141-6.032 .047-5.781 .236-5.576 .126-5.545-.126-5.514-.33-5.545-.503-5.718-.628-5.843-.707M-7.587-1.398C-7.477-.581-7.163 .204-6.409 .675-5.906 .99-5.231 1.178-4.681 1.1-5.812 .66-6.864-.361-7.587-1.398M-1.822 1.367-2.827 .487C-2.812 .173-2.608-.094-2.576-.408-2.922-.801-3.346-1.147-3.77-1.429-4.241-.801-5.184-.613-5.027 .298-4.65 .613-4.288 .911-3.848 1.052V1.131C-4.979 1.602-6.346 1.178-7.163 .298-7.681-.33-7.917-1.257-7.697-2.026-7.383-1.571-7.147-1.068-6.723-.644-6.425-.707-6.173-.88-5.843-.864-5.356-1.241-5.121-1.791-4.76-2.262-5.404-2.765-6.126-3.126-6.676-3.77-6.739-3.943-6.739-4.194-6.597-4.335-5.592-4.948-4.948-3.487-4.116-3.094-3.581-3.597-3.252-4.163-2.686-4.602-2.435-4.76-2.105-4.634-1.885-4.477-1.5-3.904-1.728-3.433-2.094-2.994-2.078-2.98-2.068-2.961-2.068-2.94-2.068-2.9-2.101-2.867-2.141-2.867-2.159-2.867-2.174-2.875-2.187-2.885-2.446-2.594-2.749-2.315-2.953-2.026-2.56-1.775-2.183-1.461-1.775-1.241L-.754-1.508C-.456-1.241-.141-.943 .173-.707 .628 .251-.393 .691-.754 1.367Z" fill="#1d4164"/>
<path transform="matrix(1,0,0,-1,166.9966,234.98877)" d="M0 0C-.04 0-.072-.032-.072-.072-.072-.112-.041-.144-.001-.145-.111-.732-.32-1.285-.682-1.696-1.145-2.224-1.729-2.643-2.442-2.961-2.435-2.949-2.429-2.936-2.429-2.921-2.429-2.881-2.461-2.849-2.501-2.849-2.541-2.849-2.574-2.881-2.574-2.921-2.574-2.957-2.547-2.986-2.513-2.991-3.169-3.274-3.931-3.474-4.811-3.591L-4.885-3.601C-5.823-3.725-7.533-3.954-8.568-5.299-9.169-4.518-9.997-4.114-10.77-3.888-10.769-3.882-10.767-3.877-10.767-3.871-10.767-3.831-10.799-3.798-10.839-3.798-10.872-3.798-10.898-3.82-10.907-3.849-11.414-3.713-11.889-3.648-12.25-3.601L-12.324-3.591C-14.203-3.341-15.553-2.721-16.454-1.696-17.046-1.022-17.233 .034-17.233 .997-17.233 1.935-17.056 2.782-16.904 3.1H-16.511C-16.511 3.096-16.512 3.091-16.513 3.087L-8.753 3.008H-.27C-.255 3.023-.23 3.032-.205 3.041-.111 2.81-.012 2.389 .047 1.881 .034 1.892 .018 1.899 0 1.899-.04 1.899-.072 1.867-.072 1.827-.072 1.787-.04 1.754 0 1.754 .024 1.754 .044 1.767 .057 1.784 .083 1.537 .098 1.27 .098 .997 .098 .667 .075 .327 .023-.005 .015-.002 .008 0 0 0M-16.652 9.3C-16.555 9.399-16.248 9.771-15.897 10.205V6.252L-15.993 6.181C-15.972 6.359-15.958 6.533-15.954 6.7-15.953 6.742-15.952 6.784-15.952 6.826-15.952 8.095-16.452 8.991-16.652 9.3M-12.488 6.345C-12.245 5.899-12.299 5.206-12.302 4.679-12.156 4.48-11.862 4.577-11.666 4.609-11.421 4.706-11.665 4.84-11.713 4.955L-11.575 6.142C-10.793 5.922-10.241 4.908-9.919 4.213-11.894 4.143-13.826 4.246-15.752 4.176-15.01 5.441-13.521 5.495-12.488 6.345M-15.535 10.653C-15.273 10.979-15.016 11.301-14.826 11.537V7.04L-15.535 6.518ZM-14.465 11.844C-14.299 11.76-14.049 11.632-13.755 11.485V7.783L-14.139 7.546-14.465 7.306ZM-13.394 11.304C-13.163 11.19-12.921 11.072-12.685 10.959V8.447L-13.394 8.007ZM-12.324 10.789C-12.055 10.664-11.809 10.555-11.614 10.478V9.11L-12.324 8.671ZM-11.253 10.357C-11.043 10.301-10.798 10.254-10.543 10.214V8.309L-11.253 8.859ZM-9.464 7.233-8.762 7.228C-8.602 6.667-7.725 6.117-8.332 5.527-8.433 5.033-7.898 4.707-7.999 4.213-8.434 4.176-8.724 4.176-9.091 4.197-9.429 4.875-9.932 5.389-10.45 6.019-10.268 6.512-9.711 6.789-9.464 7.233M-10.182 10.163C-9.939 10.132-9.697 10.107-9.473 10.087V8.897C-9.707 8.712-9.941 8.518-10.182 8.326ZM-9.112 10.059C-9.021 10.052-8.935 10.046-8.859 10.042-8.859 10.042-8.724 10.03-8.567 10.03V9.522C-8.755 9.416-8.936 9.298-9.112 9.171ZM-8.206 10.046C-8.024 10.058-7.803 10.074-7.563 10.097V9.479C-7.71 9.616-7.874 9.722-8.077 9.763-8.121 9.745-8.163 9.724-8.206 9.704ZM-7.202 10.133C-6.931 10.163-6.653 10.201-6.393 10.247V8.567L-7.113 9.123-7.202 9.113ZM-5.371 4.206C-5.86 4.258-6.007 4.176-7.004 4.225-7.164 4.296-7.303 4.416-7.408 4.614-7.893 5.244-7.039 6.195-7.819 6.678-7.802 6.892-8.045 7.042-7.897 7.272-7.475 6.874-6.808 6.655-6.763 5.995-6.522 5.268-5.611 4.933-5.371 4.206M-6.032 10.32C-5.87 10.357-5.722 10.4-5.599 10.447-5.564 10.46-5.526 10.476-5.488 10.491V9.005L-5.538 8.934C-5.681 8.804-5.853 8.72-6.032 8.657ZM-4.495 5.981C-4.301 5.716-4.631 5.042-4.027 5.153L-3.962 5.07C-4.175 4.973-4.16 4.709-4.145 4.478-3.82 4.41-3.314 4.407-2.938 4.47-2.872 4.552-2.855 4.668-2.854 4.783-2.92 4.849-3.017 4.916-2.984 5.015-2.934 5.113-2.836 5.096-2.738 5.095-2.626 4.815-2.468 4.364-2.094 4.213-2.094 4.213-3.456 4.176-4.63 4.213-4.723 5.005-5.641 5.328-5.865 6.023-5.733 6.318-5.504 6.465-5.242 6.612-4.785 6.675-4.722 6.246-4.495 5.981M-5.126 10.645C-4.919 10.738-4.688 10.845-4.45 10.959V8.975L-5.126 9.413ZM-4.089 11.134C-3.903 11.224-3.718 11.315-3.545 11.402V8.389L-4.089 8.741ZM-3.324 5.38C-3.439 5.215-3.552 5.48-3.715 5.497L-3.907 6.092C-3.63 6.091-3.485 5.793-3.241 5.692-3.192 5.61-3.258 5.462-3.324 5.38M-3.183 11.584C-2.927 11.713-2.716 11.821-2.59 11.886-2.589 11.885-2.588 11.883-2.587 11.882V7.705L-2.632 7.761-3.183 8.147ZM-2.226 11.426C-2.03 11.177-1.781 10.862-1.53 10.548V6.652L-1.843 6.793-2.226 7.262ZM-1.169 10.1C-.885 9.752-.63 9.45-.483 9.3-.664 9.02-1.088 8.262-1.169 7.182ZM.057 3.297C-.288 3.944-.805 5.532-.836 6.709-.875 8.202-.131 9.206-.123 9.216L-.033 9.336-.139 9.443C-.148 9.452-2.379 12.173-2.413 12.214L-2.502 12.321-2.625 12.257C-2.647 12.245-4.869 11.095-5.722 10.77-6.437 10.497-8.091 10.396-8.568 10.372-9.044 10.396-10.699 10.497-11.414 10.77-12.266 11.095-14.488 12.245-14.51 12.257L-14.634 12.321-14.723 12.214C-14.757 12.173-16.987 9.452-16.996 9.443L-17.103 9.337-17.012 9.216C-17.005 9.206-16.26 8.202-16.299 6.709-16.33 5.532-16.847 3.944-17.193 3.297-17.579 2.573-18.024-.432-16.713-1.924-15.755-3.014-14.335-3.672-12.37-3.933L-12.296-3.943C-11.389-4.063-9.72-4.287-8.779-5.594L-8.692-5.714-8.616-5.829-8.568-5.922-8.52-5.829-8.443-5.714-8.357-5.594C-7.416-4.287-5.747-4.063-4.84-3.943L-4.765-3.933C-2.801-3.672-1.38-3.014-.422-1.924 .889-.432 .444 2.573 .057 3.297" fill="#1d4164"/>
<path transform="matrix(1,0,0,-1,150.3206,232.1402)" d="M0 0C-.04 0-.072-.032-.072-.072-.072-.112-.04-.145 0-.145 .04-.145 .072-.112 .072-.072 .072-.032 .04 0 0 0" fill="#1d4164"/>
<path transform="matrix(1,0,0,-1,151.1544,232.1402)" d="M0 0C-.04 0-.072-.032-.072-.072-.072-.112-.04-.145 0-.145 .04-.145 .072-.112 .072-.072 .072-.032 .04 0 0 0" fill="#1d4164"/>
<path transform="matrix(1,0,0,-1,151.9882,232.1402)" d="M0 0C-.04 0-.072-.032-.072-.072-.072-.112-.04-.145 0-.145 .04-.145 .072-.112 .072-.072 .072-.032 .04 0 0 0" fill="#1d4164"/>
<path transform="matrix(1,0,0,-1,152.822,232.1402)" d="M0 0C-.04 0-.072-.032-.072-.072-.072-.112-.04-.145 0-.145 .04-.145 .072-.112 .072-.072 .072-.032 .04 0 0 0" fill="#1d4164"/>
<path transform="matrix(1,0,0,-1,153.6558,232.1402)" d="M0 0C-.04 0-.072-.032-.072-.072-.072-.112-.04-.145 0-.145 .04-.145 .072-.112 .072-.072 .072-.032 .04 0 0 0" fill="#1d4164"/>
<path transform="matrix(1,0,0,-1,154.4896,232.1402)" d="M0 0C-.04 0-.072-.032-.072-.072-.072-.112-.04-.145 0-.145 .04-.145 .072-.112 .072-.072 .072-.032 .04 0 0 0" fill="#1d4164"/>
<path transform="matrix(1,0,0,-1,155.3234,232.28498)" d="M0 0C.04 0 .072 .032 .072 .072 .072 .112 .04 .145 0 .145-.04 .145-.072 .112-.072 .072-.072 .032-.04 0 0 0" fill="#1d4164"/>
<path transform="matrix(1,0,0,-1,156.1573,232.28498)" d="M0 0C.04 0 .072 .032 .072 .072 .072 .112 .04 .145 0 .145-.04 .145-.072 .112-.072 .072-.072 .032-.04 0 0 0" fill="#1d4164"/>
<path transform="matrix(1,0,0,-1,156.9911,232.28498)" d="M0 0C.04 0 .072 .032 .072 .072 .072 .112 .04 .145 0 .145-.04 .145-.072 .112-.072 .072-.072 .032-.04 0 0 0" fill="#1d4164"/>
<path transform="matrix(1,0,0,-1,157.8249,232.28498)" d="M0 0C.04 0 .072 .032 .072 .072 .072 .112 .04 .145 0 .145-.04 .145-.072 .112-.072 .072-.072 .032-.04 0 0 0" fill="#1d4164"/>
<path transform="matrix(1,0,0,-1,158.6587,232.28498)" d="M0 0C.04 0 .072 .032 .072 .072 .072 .112 .04 .145 0 .145-.04 .145-.072 .112-.072 .072-.072 .032-.04 0 0 0" fill="#1d4164"/>
<path transform="matrix(1,0,0,-1,159.4925,232.28498)" d="M0 0C.04 0 .072 .032 .072 .072 .072 .112 .04 .145 0 .145-.04 .145-.072 .112-.072 .072-.072 .032-.04 0 0 0" fill="#1d4164"/>
<path transform="matrix(1,0,0,-1,160.3262,232.28498)" d="M0 0C.04 0 .072 .032 .072 .072 .072 .112 .04 .145 0 .145-.04 .145-.072 .112-.072 .072-.072 .032-.04 0 0 0" fill="#1d4164"/>
<path transform="matrix(1,0,0,-1,161.16,232.28498)" d="M0 0C.04 0 .072 .032 .072 .072 .072 .112 .04 .145 0 .145-.04 .145-.072 .112-.072 .072-.072 .032-.04 0 0 0" fill="#1d4164"/>
<path transform="matrix(1,0,0,-1,161.994,232.28498)" d="M0 0C.04 0 .072 .032 .072 .072 .072 .112 .04 .145 0 .145-.04 .145-.072 .112-.072 .072-.072 .032-.04 0 0 0" fill="#1d4164"/>
<path transform="matrix(1,0,0,-1,162.8276,232.1402)" d="M0 0C-.04 0-.072-.032-.072-.072-.072-.112-.04-.145 0-.145 .04-.145 .072-.112 .072-.072 .072-.032 .04 0 0 0" fill="#1d4164"/>
<path transform="matrix(1,0,0,-1,163.6614,232.1402)" d="M0 0C-.04 0-.072-.032-.072-.072-.072-.112-.04-.145 0-.145 .04-.145 .072-.112 .072-.072 .072-.032 .04 0 0 0" fill="#1d4164"/>
<path transform="matrix(1,0,0,-1,164.4953,232.1402)" d="M0 0C-.04 0-.072-.032-.072-.072-.072-.112-.04-.145 0-.145 .04-.145 .072-.112 .072-.072 .072-.032 .04 0 0 0" fill="#1d4164"/>
<path transform="matrix(1,0,0,-1,165.3291,232.1402)" d="M0 0C-.04 0-.072-.032-.072-.072-.072-.112-.04-.145 0-.145 .04-.145 .072-.112 .072-.072 .072-.032 .04 0 0 0" fill="#1d4164"/>
<path transform="matrix(1,0,0,-1,166.1629,232.1402)" d="M0 0C-.04 0-.072-.032-.072-.072-.072-.112-.04-.145 0-.145 .04-.145 .072-.112 .072-.072 .072-.032 .04 0 0 0" fill="#1d4164"/>
<path transform="matrix(1,0,0,-1,150.3206,233.08972)" d="M0 0C-.04 0-.072-.032-.072-.072-.072-.112-.04-.145 0-.145 .04-.145 .072-.112 .072-.072 .072-.032 .04 0 0 0" fill="#1d4164"/>
<path transform="matrix(1,0,0,-1,151.1544,233.08972)" d="M0 0C-.04 0-.072-.032-.072-.072-.072-.112-.04-.145 0-.145 .04-.145 .072-.112 .072-.072 .072-.032 .04 0 0 0" fill="#1d4164"/>
<path transform="matrix(1,0,0,-1,151.9882,233.08972)" d="M0 0C-.04 0-.072-.032-.072-.072-.072-.112-.04-.145 0-.145 .04-.145 .072-.112 .072-.072 .072-.032 .04 0 0 0" fill="#1d4164"/>
<path transform="matrix(1,0,0,-1,152.822,233.08972)" d="M0 0C-.04 0-.072-.032-.072-.072-.072-.112-.04-.145 0-.145 .04-.145 .072-.112 .072-.072 .072-.032 .04 0 0 0" fill="#1d4164"/>
<path transform="matrix(1,0,0,-1,153.6558,233.08972)" d="M0 0C-.04 0-.072-.032-.072-.072-.072-.112-.04-.145 0-.145 .04-.145 .072-.112 .072-.072 .072-.032 .04 0 0 0" fill="#1d4164"/>
<path transform="matrix(1,0,0,-1,154.4896,233.08972)" d="M0 0C-.04 0-.072-.032-.072-.072-.072-.112-.04-.145 0-.145 .04-.145 .072-.112 .072-.072 .072-.032 .04 0 0 0" fill="#1d4164"/>
<path transform="matrix(1,0,0,-1,155.3234,233.23462)" d="M0 0C.04 0 .072 .032 .072 .072 .072 .112 .04 .145 0 .145-.04 .145-.072 .112-.072 .072-.072 .032-.04 0 0 0" fill="#1d4164"/>
<path transform="matrix(1,0,0,-1,158.6587,233.08972)" d="M0 0C-.04 0-.072-.032-.072-.072-.072-.112-.04-.145 0-.145 .04-.145 .072-.112 .072-.072 .072-.032 .04 0 0 0" fill="#1d4164"/>
<path transform="matrix(1,0,0,-1,159.4925,233.23462)" d="M0 0C.04 0 .072 .032 .072 .072 .072 .112 .04 .145 0 .145-.04 .145-.072 .112-.072 .072-.072 .032-.04 0 0 0" fill="#1d4164"/>
<path transform="matrix(1,0,0,-1,162.8276,233.08972)" d="M0 0C-.04 0-.072-.032-.072-.072-.072-.112-.04-.145 0-.145 .04-.145 .072-.112 .072-.072 .072-.032 .04 0 0 0" fill="#1d4164"/>
<path transform="matrix(1,0,0,-1,163.6614,233.08972)" d="M0 0C-.04 0-.072-.032-.072-.072-.072-.112-.04-.145 0-.145 .04-.145 .072-.112 .072-.072 .072-.032 .04 0 0 0" fill="#1d4164"/>
<path transform="matrix(1,0,0,-1,164.4953,233.08972)" d="M0 0C-.04 0-.072-.032-.072-.072-.072-.112-.04-.145 0-.145 .04-.145 .072-.112 .072-.072 .072-.032 .04 0 0 0" fill="#1d4164"/>
<path transform="matrix(1,0,0,-1,165.3291,233.08972)" d="M0 0C-.04 0-.072-.032-.072-.072-.072-.112-.04-.145 0-.145 .04-.145 .072-.112 .072-.072 .072-.032 .04 0 0 0" fill="#1d4164"/>
<path transform="matrix(1,0,0,-1,166.1629,233.08972)" d="M0 0C-.04 0-.072-.032-.072-.072-.072-.112-.04-.145 0-.145 .04-.145 .072-.112 .072-.072 .072-.032 .04 0 0 0" fill="#1d4164"/>
<path transform="matrix(1,0,0,-1,150.3206,234.0393)" d="M0 0C-.04 0-.072-.032-.072-.072-.072-.112-.04-.145 0-.145 .04-.145 .072-.112 .072-.072 .072-.032 .04 0 0 0" fill="#1d4164"/>
<path transform="matrix(1,0,0,-1,151.1544,234.0393)" d="M0 0C-.04 0-.072-.032-.072-.072-.072-.112-.04-.145 0-.145 .04-.145 .072-.112 .072-.072 .072-.032 .04 0 0 0" fill="#1d4164"/>
<path transform="matrix(1,0,0,-1,151.9882,234.0393)" d="M0 0C-.04 0-.072-.032-.072-.072-.072-.112-.04-.145 0-.145 .04-.145 .072-.112 .072-.072 .072-.032 .04 0 0 0" fill="#1d4164"/>
<path transform="matrix(1,0,0,-1,152.822,234.0393)" d="M0 0C-.04 0-.072-.032-.072-.072-.072-.112-.04-.145 0-.145 .04-.145 .072-.112 .072-.072 .072-.032 .04 0 0 0" fill="#1d4164"/>
<path transform="matrix(1,0,0,-1,153.6558,234.0393)" d="M0 0C-.04 0-.072-.032-.072-.072-.072-.112-.04-.145 0-.145 .04-.145 .072-.112 .072-.072 .072-.032 .04 0 0 0" fill="#1d4164"/>
<path transform="matrix(1,0,0,-1,154.4896,234.0393)" d="M0 0C-.04 0-.072-.032-.072-.072-.072-.112-.04-.145 0-.145 .04-.145 .072-.112 .072-.072 .072-.032 .04 0 0 0" fill="#1d4164"/>
<path transform="matrix(1,0,0,-1,157.7525,234.1117)" d="M0 0C0-.04 .032-.072 .072-.072 .112-.072 .145-.04 .145 0 .145 .04 .112 .072 .072 .072 .032 .072 0 .04 0 0" fill="#1d4164"/>
<path transform="matrix(1,0,0,-1,158.6587,234.0393)" d="M0 0C-.04 0-.072-.032-.072-.072-.072-.112-.04-.145 0-.145 .04-.145 .072-.112 .072-.072 .072-.032 .04 0 0 0" fill="#1d4164"/>
<path transform="matrix(1,0,0,-1,159.4925,234.18408)" d="M0 0C.04 0 .072 .032 .072 .072 .072 .112 .04 .145 0 .145-.04 .145-.072 .112-.072 .072-.072 .032-.04 0 0 0" fill="#1d4164"/>
<path transform="matrix(1,0,0,-1,162.8276,234.0393)" d="M0 0C-.04 0-.072-.032-.072-.072-.072-.112-.04-.145 0-.145 .04-.145 .072-.112 .072-.072 .072-.032 .04 0 0 0" fill="#1d4164"/>
<path transform="matrix(1,0,0,-1,163.6614,234.0393)" d="M0 0C-.04 0-.072-.032-.072-.072-.072-.112-.04-.145 0-.145 .04-.145 .072-.112 .072-.072 .072-.032 .04 0 0 0" fill="#1d4164"/>
<path transform="matrix(1,0,0,-1,164.4953,234.0393)" d="M0 0C-.04 0-.072-.032-.072-.072-.072-.112-.04-.145 0-.145 .04-.145 .072-.112 .072-.072 .072-.032 .04 0 0 0" fill="#1d4164"/>
<path transform="matrix(1,0,0,-1,165.3291,234.0393)" d="M0 0C-.04 0-.072-.032-.072-.072-.072-.112-.04-.145 0-.145 .04-.145 .072-.112 .072-.072 .072-.032 .04 0 0 0" fill="#1d4164"/>
<path transform="matrix(1,0,0,-1,166.1629,234.0393)" d="M0 0C-.04 0-.072-.032-.072-.072-.072-.112-.04-.145 0-.145 .04-.145 .072-.112 .072-.072 .072-.032 .04 0 0 0" fill="#1d4164"/>
<path transform="matrix(1,0,0,-1,166.9966,234.0393)" d="M0 0C-.04 0-.072-.032-.072-.072-.072-.112-.04-.145 0-.145 .04-.145 .072-.112 .072-.072 .072-.032 .04 0 0 0" fill="#1d4164"/>
<path transform="matrix(1,0,0,-1,150.3206,234.98877)" d="M0 0C-.04 0-.072-.032-.072-.072-.072-.112-.04-.145 0-.145 .04-.145 .072-.112 .072-.072 .072-.032 .04 0 0 0" fill="#1d4164"/>
<path transform="matrix(1,0,0,-1,151.1544,234.98877)" d="M0 0C-.04 0-.072-.032-.072-.072-.072-.112-.04-.145 0-.145 .04-.145 .072-.112 .072-.072 .072-.032 .04 0 0 0" fill="#1d4164"/>
<path transform="matrix(1,0,0,-1,151.9882,234.98877)" d="M0 0C-.04 0-.072-.032-.072-.072-.072-.112-.04-.145 0-.145 .04-.145 .072-.112 .072-.072 .072-.032 .04 0 0 0" fill="#1d4164"/>
<path transform="matrix(1,0,0,-1,152.822,234.98877)" d="M0 0C-.04 0-.072-.032-.072-.072-.072-.112-.04-.145 0-.145 .04-.145 .072-.112 .072-.072 .072-.032 .04 0 0 0" fill="#1d4164"/>
<path transform="matrix(1,0,0,-1,153.6558,234.98877)" d="M0 0C-.04 0-.072-.032-.072-.072-.072-.112-.04-.145 0-.145 .04-.145 .072-.112 .072-.072 .072-.032 .04 0 0 0" fill="#1d4164"/>
<path transform="matrix(1,0,0,-1,154.4896,234.98877)" d="M0 0C-.04 0-.072-.032-.072-.072-.072-.112-.04-.145 0-.145 .04-.145 .072-.112 .072-.072 .072-.032 .04 0 0 0" fill="#1d4164"/>
<path transform="matrix(1,0,0,-1,156.1573,235.13373)" d="M0 0C.04 0 .072 .032 .072 .072 .072 .112 .04 .145 0 .145-.04 .145-.072 .112-.072 .072-.072 .032-.04 0 0 0" fill="#1d4164"/>
<path transform="matrix(1,0,0,-1,158.6587,234.98877)" d="M0 0C-.04 0-.072-.032-.072-.072-.072-.112-.04-.145 0-.145 .04-.145 .072-.112 .072-.072 .072-.032 .04 0 0 0" fill="#1d4164"/>
<path transform="matrix(1,0,0,-1,162.8276,234.98877)" d="M0 0C-.04 0-.072-.032-.072-.072-.072-.112-.04-.145 0-.145 .04-.145 .072-.112 .072-.072 .072-.032 .04 0 0 0" fill="#1d4164"/>
<path transform="matrix(1,0,0,-1,163.6614,234.98877)" d="M0 0C-.04 0-.072-.032-.072-.072-.072-.112-.04-.145 0-.145 .04-.145 .072-.112 .072-.072 .072-.032 .04 0 0 0" fill="#1d4164"/>
<path transform="matrix(1,0,0,-1,164.4953,234.98877)" d="M0 0C-.04 0-.072-.032-.072-.072-.072-.112-.04-.145 0-.145 .04-.145 .072-.112 .072-.072 .072-.032 .04 0 0 0" fill="#1d4164"/>
<path transform="matrix(1,0,0,-1,165.3291,234.98877)" d="M0 0C-.04 0-.072-.032-.072-.072-.072-.112-.04-.145 0-.145 .04-.145 .072-.112 .072-.072 .072-.032 .04 0 0 0" fill="#1d4164"/>
<path transform="matrix(1,0,0,-1,166.1629,234.98877)" d="M0 0C-.04 0-.072-.032-.072-.072-.072-.112-.04-.145 0-.145 .04-.145 .072-.112 .072-.072 .072-.032 .04 0 0 0" fill="#1d4164"/>
<path transform="matrix(1,0,0,-1,150.3206,235.93842)" d="M0 0C-.04 0-.072-.032-.072-.072-.072-.112-.04-.145 0-.145 .04-.145 .072-.112 .072-.072 .072-.032 .04 0 0 0" fill="#1d4164"/>
<path transform="matrix(1,0,0,-1,151.1544,235.93842)" d="M0 0C-.04 0-.072-.032-.072-.072-.072-.112-.04-.145 0-.145 .04-.145 .072-.112 .072-.072 .072-.032 .04 0 0 0" fill="#1d4164"/>
<path transform="matrix(1,0,0,-1,151.9882,235.93842)" d="M0 0C-.04 0-.072-.032-.072-.072-.072-.112-.04-.145 0-.145 .04-.145 .072-.112 .072-.072 .072-.032 .04 0 0 0" fill="#1d4164"/>
<path transform="matrix(1,0,0,-1,152.822,235.93842)" d="M0 0C-.04 0-.072-.032-.072-.072-.072-.112-.04-.145 0-.145 .04-.145 .072-.112 .072-.072 .072-.032 .04 0 0 0" fill="#1d4164"/>
<path transform="matrix(1,0,0,-1,153.6558,235.93842)" d="M0 0C-.04 0-.072-.032-.072-.072-.072-.112-.04-.145 0-.145 .04-.145 .072-.112 .072-.072 .072-.032 .04 0 0 0" fill="#1d4164"/>
<path transform="matrix(1,0,0,-1,154.4896,235.93842)" d="M0 0C-.04 0-.072-.032-.072-.072-.072-.112-.04-.145 0-.145 .04-.145 .072-.112 .072-.072 .072-.032 .04 0 0 0" fill="#1d4164"/>
<path transform="matrix(1,0,0,-1,155.3234,235.93842)" d="M0 0C-.04 0-.072-.032-.072-.072-.072-.112-.04-.145 0-.145 .04-.145 .072-.112 .072-.072 .072-.032 .04 0 0 0" fill="#1d4164"/>
<path transform="matrix(1,0,0,-1,156.1573,236.08332)" d="M0 0C.04 0 .072 .032 .072 .072 .072 .112 .04 .145 0 .145-.04 .145-.072 .112-.072 .072-.072 .032-.04 0 0 0" fill="#1d4164"/>
<path transform="matrix(1,0,0,-1,157.0635,236.0108)" d="M0 0C0 .04-.032 .072-.072 .072-.112 .072-.145 .04-.145 0-.145-.04-.112-.072-.072-.072-.032-.072 0-.04 0 0" fill="#1d4164"/>
<path transform="matrix(1,0,0,-1,160.2538,236.0108)" d="M0 0C0-.04 .033-.072 .072-.072 .112-.072 .145-.04 .145 0 .145 .04 .112 .072 .072 .072 .033 .072 0 .04 0 0" fill="#1d4164"/>
<path transform="matrix(1,0,0,-1,161.16,235.93842)" d="M0 0C-.04 0-.072-.032-.072-.072-.072-.112-.04-.145 0-.145 .04-.145 .072-.112 .072-.072 .072-.032 .04 0 0 0" fill="#1d4164"/>
<path transform="matrix(1,0,0,-1,161.994,235.93842)" d="M0 0C-.04 0-.072-.032-.072-.072-.072-.112-.04-.145 0-.145 .04-.145 .072-.112 .072-.072 .072-.032 .04 0 0 0" fill="#1d4164"/>
<path transform="matrix(1,0,0,-1,162.8276,235.93842)" d="M0 0C-.04 0-.072-.032-.072-.072-.072-.112-.04-.145 0-.145 .04-.145 .072-.112 .072-.072 .072-.032 .04 0 0 0" fill="#1d4164"/>
<path transform="matrix(1,0,0,-1,163.6614,235.93842)" d="M0 0C-.04 0-.072-.032-.072-.072-.072-.112-.04-.145 0-.145 .04-.145 .072-.112 .072-.072 .072-.032 .04 0 0 0" fill="#1d4164"/>
<path transform="matrix(1,0,0,-1,164.4953,235.93842)" d="M0 0C-.04 0-.072-.032-.072-.072-.072-.112-.04-.145 0-.145 .04-.145 .072-.112 .072-.072 .072-.032 .04 0 0 0" fill="#1d4164"/>
<path transform="matrix(1,0,0,-1,165.3291,235.93842)" d="M0 0C-.04 0-.072-.032-.072-.072-.072-.112-.04-.145 0-.145 .04-.145 .072-.112 .072-.072 .072-.032 .04 0 0 0" fill="#1d4164"/>
<path transform="matrix(1,0,0,-1,166.1629,235.93842)" d="M0 0C-.04 0-.072-.032-.072-.072-.072-.112-.04-.145 0-.145 .04-.145 .072-.112 .072-.072 .072-.032 .04 0 0 0" fill="#1d4164"/>
<path transform="matrix(1,0,0,-1,151.1544,236.88788)" d="M0 0C-.04 0-.072-.032-.072-.072-.072-.112-.04-.145 0-.145 .04-.145 .072-.112 .072-.072 .072-.032 .04 0 0 0" fill="#1d4164"/>
<path transform="matrix(1,0,0,-1,151.9882,236.88788)" d="M0 0C-.04 0-.072-.032-.072-.072-.072-.112-.04-.145 0-.145 .04-.145 .072-.112 .072-.072 .072-.032 .04 0 0 0" fill="#1d4164"/>
<path transform="matrix(1,0,0,-1,152.822,236.88788)" d="M0 0C-.04 0-.072-.032-.072-.072-.072-.112-.04-.145 0-.145 .04-.145 .072-.112 .072-.072 .072-.032 .04 0 0 0" fill="#1d4164"/>
<path transform="matrix(1,0,0,-1,153.6558,236.88788)" d="M0 0C-.04 0-.072-.032-.072-.072-.072-.112-.04-.145 0-.145 .04-.145 .072-.112 .072-.072 .072-.032 .04 0 0 0" fill="#1d4164"/>
<path transform="matrix(1,0,0,-1,154.4896,236.88788)" d="M0 0C-.04 0-.072-.032-.072-.072-.072-.112-.04-.145 0-.145 .04-.145 .072-.112 .072-.072 .072-.032 .04 0 0 0" fill="#1d4164"/>
<path transform="matrix(1,0,0,-1,155.3234,236.88788)" d="M0 0C-.04 0-.072-.032-.072-.072-.072-.112-.04-.145 0-.145 .04-.145 .072-.112 .072-.072 .072-.032 .04 0 0 0" fill="#1d4164"/>
<path transform="matrix(1,0,0,-1,156.1573,237.03278)" d="M0 0C.04 0 .072 .032 .072 .072 .072 .112 .04 .145 0 .145-.04 .145-.072 .112-.072 .072-.072 .032-.04 0 0 0" fill="#1d4164"/>
<path transform="matrix(1,0,0,-1,161.16,236.88788)" d="M0 0C-.04 0-.072-.032-.072-.072-.072-.112-.04-.145 0-.145 .04-.145 .072-.112 .072-.072 .072-.032 .04 0 0 0" fill="#1d4164"/>
<path transform="matrix(1,0,0,-1,161.994,236.88788)" d="M0 0C-.04 0-.072-.032-.072-.072-.072-.112-.04-.145 0-.145 .04-.145 .072-.112 .072-.072 .072-.032 .04 0 0 0" fill="#1d4164"/>
<path transform="matrix(1,0,0,-1,162.8276,236.88788)" d="M0 0C-.04 0-.072-.032-.072-.072-.072-.112-.04-.145 0-.145 .04-.145 .072-.112 .072-.072 .072-.032 .04 0 0 0" fill="#1d4164"/>
<path transform="matrix(1,0,0,-1,163.6614,236.88788)" d="M0 0C-.04 0-.072-.032-.072-.072-.072-.112-.04-.145 0-.145 .04-.145 .072-.112 .072-.072 .072-.032 .04 0 0 0" fill="#1d4164"/>
<path transform="matrix(1,0,0,-1,164.4953,236.88788)" d="M0 0C-.04 0-.072-.032-.072-.072-.072-.112-.04-.145 0-.145 .04-.145 .072-.112 .072-.072 .072-.032 .04 0 0 0" fill="#1d4164"/>
<path transform="matrix(1,0,0,-1,165.3291,236.88788)" d="M0 0C-.04 0-.072-.032-.072-.072-.072-.112-.04-.145 0-.145 .04-.145 .072-.112 .072-.072 .072-.032 .04 0 0 0" fill="#1d4164"/>
<path transform="matrix(1,0,0,-1,152.822,237.83753)" d="M0 0C-.04 0-.072-.032-.072-.072-.072-.112-.04-.145 0-.145 .04-.145 .072-.112 .072-.072 .072-.032 .04 0 0 0" fill="#1d4164"/>
<path transform="matrix(1,0,0,-1,153.6558,237.83753)" d="M0 0C-.04 0-.072-.032-.072-.072-.072-.112-.04-.145 0-.145 .04-.145 .072-.112 .072-.072 .072-.032 .04 0 0 0" fill="#1d4164"/>
<path transform="matrix(1,0,0,-1,154.4896,237.83753)" d="M0 0C-.04 0-.072-.032-.072-.072-.072-.112-.04-.145 0-.145 .04-.145 .072-.112 .072-.072 .072-.032 .04 0 0 0" fill="#1d4164"/>
<path transform="matrix(1,0,0,-1,155.3234,237.83753)" d="M0 0C-.04 0-.072-.032-.072-.072-.072-.112-.04-.145 0-.145 .04-.145 .072-.112 .072-.072 .072-.032 .04 0 0 0" fill="#1d4164"/>
<path transform="matrix(1,0,0,-1,157.8249,237.83753)" d="M0 0C-.04 0-.072-.032-.072-.072-.072-.112-.04-.145 0-.145 .04-.145 .072-.112 .072-.072 .072-.032 .04 0 0 0" fill="#1d4164"/>
<path transform="matrix(1,0,0,-1,158.6587,237.83753)" d="M0 0C-.04 0-.072-.032-.072-.072-.072-.112-.04-.145 0-.145 .04-.145 .072-.112 .072-.072 .072-.032 .04 0 0 0" fill="#1d4164"/>
<path transform="matrix(1,0,0,-1,161.16,237.83753)" d="M0 0C-.04 0-.072-.032-.072-.072-.072-.112-.04-.145 0-.145 .04-.145 .072-.112 .072-.072 .072-.032 .04 0 0 0" fill="#1d4164"/>
<path transform="matrix(1,0,0,-1,161.994,237.83753)" d="M0 0C-.04 0-.072-.032-.072-.072-.072-.112-.04-.145 0-.145 .04-.145 .072-.112 .072-.072 .072-.032 .04 0 0 0" fill="#1d4164"/>
<path transform="matrix(1,0,0,-1,162.8276,237.83753)" d="M0 0C-.04 0-.072-.032-.072-.072-.072-.112-.04-.145 0-.145 .04-.145 .072-.112 .072-.072 .072-.032 .04 0 0 0" fill="#1d4164"/>
<path transform="matrix(1,0,0,-1,163.6614,237.83753)" d="M0 0C-.04 0-.072-.032-.072-.072-.072-.112-.04-.145 0-.145 .04-.145 .072-.112 .072-.072 .072-.032 .04 0 0 0" fill="#1d4164"/>
<path transform="matrix(1,0,0,-1,156.9911,238.78699)" d="M0 0C-.04 0-.072-.032-.072-.072-.072-.112-.04-.145 0-.145 .04-.145 .072-.112 .072-.072 .072-.032 .04 0 0 0" fill="#1d4164"/>
<path transform="matrix(1,0,0,-1,157.8249,238.78699)" d="M0 0C-.04 0-.072-.032-.072-.072-.072-.112-.04-.145 0-.145 .04-.145 .072-.112 .072-.072 .072-.032 .04 0 0 0" fill="#1d4164"/>
<path transform="matrix(1,0,0,-1,158.6587,238.78699)" d="M0 0C-.04 0-.072-.032-.072-.072-.072-.112-.04-.145 0-.145 .04-.145 .072-.112 .072-.072 .072-.032 .04 0 0 0" fill="#1d4164"/>
<path transform="matrix(1,0,0,-1,159.4925,238.78699)" d="M0 0C-.04 0-.072-.032-.072-.072-.072-.112-.04-.145 0-.145 .04-.145 .072-.112 .072-.072 .072-.032 .04 0 0 0" fill="#1d4164"/>
<path transform="matrix(1,0,0,-1,160.3262,238.78699)" d="M0 0C-.04 0-.072-.032-.072-.072-.072-.112-.04-.145 0-.145 .04-.145 .072-.112 .072-.072 .072-.032 .04 0 0 0" fill="#1d4164"/>
<path transform="matrix(1,0,0,-1,158.6587,239.73651)" d="M0 0C-.04 0-.072-.033-.072-.072-.072-.112-.04-.145 0-.145 .04-.145 .072-.112 .072-.072 .072-.033 .04 0 0 0" fill="#1d4164"/>
<path transform="matrix(1,0,0,-1,167.6216,219.07349)" d="M0 0-.141 .833C-.157 .581-.314 .063 0 0" fill="#1d4164"/>
<path transform="matrix(1,0,0,-1,169.2823,220.7984)" d="M0 0C0 0-.268 .179-.446 .298-.625 .417-.923 .536-.923 .536-.923 .536-.595 .685-.417 .804-.238 .923 0 1.101 0 1.101 0 1.101 .357 .833 .566 .744 .774 .655 1.161 .566 1.161 .566 1.161 .566 .685 .476 .566 .387 .446 .298 0 0 0 0M-1.504 .049C-1.77 .049-2.148-.124-2.226 .206V.363C-2.132 .316-2.053 .237-1.959 .237-1.896 .552-2.006 .882-1.692 1.07-1.315 1.227-1.425 .787-1.347 .615-1.347 .41-1.347 .159-1.504 .049M-1.535-1.035C-1.661-1.223-1.77-1.412-1.88-1.6-2.069-1.506-2.053-1.27-2.148-1.113-2.179-.831-1.959-.658-1.849-.438-1.708-.611-1.394-.752-1.535-1.035M-3.334 2.352C-3.161 3.058-2.713 3.406-1.786 3.512-1.158 3.497-.451 3.186-.153 2.589V2.448C-.774 2.203-1.012 1.905-1.601 1.474-1.726 1.458-1.756 1.458-2.143 1.458-2.394 1.836-2.972 2.147-3.334 2.352M-4.786 1.259C-5.415 1.322-6.153 1.101-6.671 1.447-6.075 1.808-5.305 1.541-4.598 1.683ZM-5.996-.658C-6.185-.579-6.075-.391-6.106-.249-5.635-.171-5.321-.218-4.786-.202-4.786-.375-4.629-.454-4.629-.626-5.085-.752-5.556-.674-5.996-.658M-4.865 .285C-4.959-.061-5.509 .19-5.807 .049-5.823 .175-5.682 .237-5.619 .316-5.383 .363-5.022 .41-4.865 .285M-7.567 .74C-7.378 1.164-6.671 .85-6.247 .992H-4.818L-4.865 .693C-5.807 .709-6.671 .505-7.567 .74M-7.001-.815-8.431 .285-8.242 .473C-7.708 .049-7.143-.328-6.624-.815ZM-9.185-.548C-8.949-.297-8.588-.234-8.242-.328-8.195-.422-8.085-.406-8.022-.516-8.352-.579-8.808-.532-9.185-.548M-10.661-.768C-9.672 .128-8.572 .929-7.457 1.604L-7.425 1.557C-8.321 .709-9.263-.092-10.206-.768ZM-11.761-.548-11.95-.359C-11.525-.281-11.164-.359-10.74-.281-10.881-.768-11.462-.454-11.761-.548M-13.52 .018-13.379 .206-11.981-.768C-12.546-.815-13.018-.265-13.52 .018M-15.751-.815C-14.447 .128-13.096 1.101-11.682 1.824-12.813 .819-14.039-.061-15.295-.925ZM-18.233 .426C-17.353 .347-16.536 .646-15.719 .175L-18.233 .128ZM-17.856 1.07-16.473 .992V.74H-18.233C-18.358 1.007-18.076 1.054-17.856 1.07M-18.091 1.683-16.772 1.636C-17.133 1.306-17.714 1.447-18.17 1.416ZM-16.018 1.824C-15.248 1.73-14.73 1.023-14.054 .693-14.007 .599-14.133 .599-14.164 .552-14.856 .803-15.405 1.368-16.018 1.793ZM-15.988 2.814-15.611 3.112V2.814ZM-13.19 1.793C-13.143 1.699-13.269 1.667-13.3 1.604-13.835 1.636-14.557 1.337-15.028 1.714-14.479 1.793-13.803 1.871-13.19 1.793M-10.284 .363C-10.693-.186-11.619 .128-12.169 .096L-12.436 .285C-11.761 .316-11.023 .395-10.284 .363M-10.174 .772-10.253 .693H-12.248C-12.138 .85-11.918 .709-11.792 .803ZM-8.855 .929C-9.232 .646-9.499 1.274-9.829 1.447L-10.253 1.903C-9.75 1.651-9.216 1.322-8.855 .929M-6.773 3.112-6.396 2.814H-6.773ZM-18.845 .583C-19.678 .567-20.652 .426-21.406 .693L-21.139 .85-18.798 .772ZM0 1.369C-.119 1.369-.42 .96-.749 .929-1.142 .693-1.142 1.149-1.315 1.337-1.095 1.651-.765 1.745-.483 1.934-.263 2.122 .099 2.028 .224 2.311 .256 2.829-.137 3.253-.561 3.521-1.456 4.055-2.666 3.85-3.467 3.253-3.765 2.594-4.551 2.735-5.116 2.547V2.437C-4.724 2.405-4.362 2.484-3.985 2.5L-3.954 2.17C-3.404 2.091-2.949 1.777-2.525 1.416-2.556 1.133-2.709 1.161-3.012 1.039-3.813 .693-3.479 1.885-4.108 1.994L-6.759 2.041V2.441H-5.389V2.828L-11.075 6.578-16.986 2.828V2.441H-15.617V2.149L-18.39 2.201C-18.751 2.028-18.704 1.604-18.924 1.337-19.835 1.149-20.872 1.588-21.673 1.117-21.767 .976-21.924 .835-21.814 .662-21.092 .033-19.866 .458-18.924 .285-18.735-.092-18.814-.563-18.61-.925L-15.719-1.035-4.174-1.082C-3.64-.878-3.671-.249-3.42 .175-3.012 .19-2.51-.043-2.322-.357-2.411-.536-2.56-.744-2.744-.956-2.336-1.396-2.075-1.922-1.964-2.441-1.786-1.905-1.629-1.412-1.158-1.003-1.31-.774-1.429-.625-1.582-.391-1.629-.281-1.472-.297-1.425-.249-1.252-.218-1.142-.029-1.127 .128-.749 .143-.19 .006 .03-.387 .208-.208 .272-.202 .413-.061 .931 .332 1.591 .363 2.157 .615 1.434 .74 .655 .833 0 1.369" fill="#1d4164"/>
<path transform="matrix(1,0,0,-1,150.4161,216.45209)" d="M0 0C-.017-.063 .021-.127 .084-.144L2.554-.799C2.617-.816 2.682-.778 2.698-.715 2.715-.652 2.678-.588 2.615-.571L.144 .084C.081 .1 .017 .063 0 0" fill="#1d4164"/>
<path transform="matrix(1,0,0,-1,152.2436,215.1435)" d="M0 0C-.033-.056-.013-.128 .043-.161L1.948-1.262C2.005-1.295 2.076-1.276 2.109-1.219 2.142-1.163 2.122-1.091 2.066-1.058L.161 .043C.105 .076 .033 .056 0 0" fill="#1d4164"/>
<path transform="matrix(1,0,0,-1,154.1655,213.9602)" d="M0 0C-.045-.047-.043-.122 .004-.167L1.373-1.476C1.42-1.521 1.495-1.52 1.54-1.472 1.584-1.425 1.583-1.351 1.536-1.306L.167 .004C.12 .049 .045 .047 0 0" fill="#1d4164"/>
<path transform="matrix(1,0,0,-1,155.9236,213.133)" d="M0 0C-.058-.03-.081-.101-.051-.159L.723-1.677C.752-1.734 .823-1.758 .881-1.728 .939-1.698 .962-1.628 .932-1.569L.158-.051C.129 .006 .058 .03 0 0" fill="#1d4164"/>
<path transform="matrix(1,0,0,-1,161.2975,213.11151)" d="M0 0-1.131-1.637C-1.168-1.691-1.155-1.764-1.101-1.801-1.048-1.838-.974-1.825-.937-1.771L.194-.134C.231-.08 .218-.007 .164 .03 .11 .067 .037 .054 0 0" fill="#1d4164"/>
<path transform="matrix(1,0,0,-1,163.3717,214.16028)" d="M0 0-1.816-1.548C-1.865-1.59-1.871-1.664-1.829-1.714-1.787-1.763-1.712-1.769-1.663-1.727L.153-.179C.202-.137 .208-.063 .166-.013 .124 .036 .05 .042 0 0" fill="#1d4164"/>
<path transform="matrix(1,0,0,-1,164.559,215.48279)" d="M0 0-2.024-.953C-2.083-.98-2.108-1.05-2.081-1.109-2.053-1.168-1.983-1.193-1.924-1.166L.1-.213C.159-.185 .185-.115 .157-.057 .129 .002 .059 .028 0 0" fill="#1d4164"/>
<path transform="matrix(1,0,0,-1,165.7741,216.78412)" d="M0 0-2.411-.536C-2.475-.55-2.515-.613-2.5-.676-2.486-.74-2.423-.78-2.36-.766L.051-.23C.115-.216 .155-.153 .141-.09 .126-.026 .063 .014 0 0" fill="#1d4164"/>
<path transform="matrix(1,0,0,-1,149.46,218.20117)" d="M0 0C-.004-.065 .045-.121 .11-.125L1.956-.244C2.02-.248 2.076-.199 2.081-.134 2.085-.069 2.035-.013 1.971-.009L.125 .11C.06 .114 .004 .065 0 0" fill="#1d4164"/>
<path transform="matrix(1,0,0,-1,158.0916,212.88068)" d="M0 0V-1.578C0-1.643 .053-1.695 .118-1.695 .183-1.695 .236-1.643 .236-1.578V0C.236 .065 .183 .118 .118 .118 .053 .118 0 .065 0 0" fill="#1d4164"/>
<path transform="matrix(1,0,0,-1,144.9359,234.33948)" d="M0 0-1.102-.612-.949-.887C-.949-.887-.376-.568-.084-.406-.089-.817-.109-2.529-.109-2.529L1.188-1.715 1.021-1.449C1.021-1.449 .5-1.776 .212-1.957 .217-1.527 .237 .131 .237 .131Z" fill="#1d4164"/>
<path transform="matrix(1,0,0,-1,154.1693,241.46692)" d="M0 0-.387-1.2-.088-1.296C-.088-1.296 .114-.672 .216-.354 .493-.657 1.648-1.922 1.648-1.922L2.039-.441 1.735-.361C1.735-.361 1.578-.955 1.491-1.284 1.202-.967 .083 .258 .083 .258Z" fill="#1d4164"/>
<path transform="matrix(1,0,0,-1,163.146,241.1502)" d="M0 0C0 0 .19-.585 .295-.908-.12-.799-1.724-.375-1.724-.375L-1.329-1.854-1.026-1.774C-1.026-1.774-1.195-1.139-1.281-.817-.883-.922 .772-1.359 .772-1.359L.299 .097Z" fill="#1d4164"/>
<path transform="matrix(1,0,0,-1,170.437,235.7738)" d="M0 0C0 0 .456-.368 .714-.575 .32-.712-1.147-1.221-1.147-1.221L-.042-2.212 .168-1.978C.168-1.978-.298-1.56-.54-1.343-.163-1.212 1.352-.686 1.352-.686L.197 .245Z" fill="#1d4164"/>
<path transform="matrix(1,0,0,-1,145.7943,237.66022)" d="M0 0 .198-.244 1.251 .613 1.053 .857Z" fill="#1d4164"/>
<path transform="matrix(1,0,0,-1,152.6456,242.39649)" d="M0 0 .292-.116 .795 1.144 .503 1.261Z" fill="#1d4164"/>
<path transform="matrix(1,0,0,-1,146.8611,238.64868)" d="M0 0-.115-.113 .906-1.107 1.125-.881C1.125-.881 .511-.284 .335-.113 .512 .06 1.15 .681 1.15 .681L.93 .906Z" fill="#1d4164"/>
<path transform="matrix(1,0,0,-1,151.2165,240.27417)" d="M0 0C-.099-.033-.174-.105-.211-.202-.331-.522 .009-.793 .212-.955 .381-1.09 .442-1.198 .443-1.254 .443-1.264 .444-1.288 .401-1.325 .233-1.469 .011-1.339-.077-1.276-.178-1.204-.352-.946-.438-.8L-.709-.96C-.683-1.004-.448-1.398-.259-1.532-.021-1.701 .331-1.799 .606-1.563 .734-1.454 .759-1.332 .757-1.248 .754-1.074 .637-.893 .408-.71 .317-.638 .043-.419 .083-.312 .086-.306 .087-.302 .1-.298 .165-.276 .319-.31 .488-.417 .705-.555 .81-.777 .811-.779L1.097-.648C1.091-.636 .955-.342 .656-.152 .416 0 .171 .057 0 0" fill="#1d4164"/>
<path transform="matrix(1,0,0,-1,156.8013,242.08148)" d="M0 0-.055-1.328 1.477-1.375 1.487-1.06C1.487-1.06 .52-1.031 .272-1.023 .28-.823 .299-.363 .307-.167 .548-.173 1.475-.196 1.475-.196L1.483 .118 .006 .154Z" fill="#1d4164"/>
<path transform="matrix(1,0,0,-1,156.9372,242.78949)" d="M0 0 1.008-.028 1.016 .286 .009 .314Z" fill="#1d4164"/>
<path transform="matrix(1,0,0,-1,170.8278,235.11798)" d="M0 0-.084-.129 1.145-.959 1.989 .321 1.727 .494C1.727 .494 1.195-.314 1.058-.521 .891-.409 .51-.152 .348-.042 .479 .16 .984 .938 .984 .938L.721 1.109Z" fill="#1d4164"/>
<path transform="matrix(1,0,0,-1,171.283,235.41712)" d="M0 0 .263-.172 .815 .671 .552 .844Z" fill="#1d4164"/>
<path transform="matrix(1,0,0,-1,168.7083,237.9035)" d="M0 0 .856-.964 1.091-.756 .235 .209Z" fill="#1d4164"/>
<path transform="matrix(1,0,0,-1,167.8655,238.5191)" d="M0 0C0 0-.302-1.074-.356-1.269-.558-1.266-1.92-1.251-1.92-1.251L-1.231-2.513-.955-2.363C-.955-2.363-1.235-1.851-1.387-1.571-1.035-1.575-.119-1.585-.119-1.585-.119-1.585 .11-.77 .215-.396 .42-.677 .74-1.115 .74-1.115L.994-.93 .087 .311Z" fill="#1d4164"/>
<path transform="matrix(1,0,0,-1,165.32,240.34748)" d="M0 0C0 0 .335-.823 .34-.835 .335-.856 .284-.999-.185-1.214-.61-1.409-.762-1.362-.78-1.338-.781-1.333-.783-1.327-.783-1.327L-1.125-.503-1.415-.623-1.073-1.448-1.082-1.418C-1.069-1.483-1.018-1.571-.912-1.625-.726-1.72-.445-1.679-.054-1.499 .352-1.313 .579-1.127 .639-.931 .678-.807 .636-.723 .622-.7L.633-.722 .291 .118Z" fill="#1d4164"/>
<path transform="matrix(1,0,0,-1,138.7334,237.91089)" d="M0 0C.764-.069 1.426-.246 1.895-.948 2.748-2.227 2.229-3.573 1.11-4.319-.104-5.13-1.564-4.962-2.334-3.81-2.663-3.316-2.652-2.698-2.747-2.555-2.846-2.407-3.005-2.441-3.191-2.486L-3.29-2.338-1.89-1.404-1.799-1.541C-2.191-2.081-2.583-3.009-2.165-3.634-1.631-4.435-.573-4.039 .438-3.364 .797-3.125 1.349-2.709 1.597-2.25 1.873-1.732 1.674-1.239 1.56-1.068 1.275-.641 .821-.349-.04-.264Z" fill="#1d4164"/>
<path transform="matrix(1,0,0,-1,136.7374,237.07648)" d="M0 0C.583 .226 2.145 .872 1.738 1.925 1.331 2.977-.259 2.404-.843 2.178-1.822 1.799-2.914 1.115-2.581 .254-2.248-.608-.979-.379 0 0M-1.264 3.267C.144 3.812 1.472 3.272 1.96 2.01 2.448 .749 1.83-.544 .421-1.089-1.041-1.655-2.343-1.019-2.802 .168-3.262 1.356-2.726 2.702-1.264 3.267" fill="#1d4164"/>
<path transform="matrix(1,0,0,-1,137.1473,229.1319)" d="M0 0 .598-3.766 .42-3.794C.313-3.437 .26-3.245-.173-3.314L-3.611-3.86C-4.079-3.934-4.051-4.203-4.026-4.5L-4.203-4.528-4.564-2.254-4.387-2.226C-4.293-2.679-4.254-2.88-3.629-2.78L-.277-2.248C.064-2.194 .098-2.042 .029-1.605-.127-.621-.775-.35-1.625-.178L-1.655 .011Z" fill="#1d4164"/>
<path transform="matrix(1,0,0,-1,134.7137,227.47083)" d="M0 0C.625-.032 2.315-.079 2.372 1.048 2.43 2.174 .744 2.3 .12 2.333-.929 2.386-2.205 2.207-2.253 1.285-2.3 .362-1.048 .054 0 0M.179 3.499C1.688 3.421 2.679 2.386 2.609 1.036 2.54-.315 1.448-1.243-.06-1.166-1.625-1.086-2.555 .025-2.49 1.297-2.425 2.569-1.386 3.579 .179 3.499" fill="#1d4164"/>
<path transform="matrix(1,0,0,-1,135.3755,221.78742)" d="M0 0C.223 .835 .162 1.208-.739 1.457-1.439 1.65-1.809 1.472-1.95 .963-2.046 .613-1.974 .579-1.768 .488ZM3.162 2.131 2.802 .828 .269 .11 .222-.061 1.58-.437C2.135-.59 2.194-.455 2.373-.053L2.546-.101 1.952-2.25 1.779-2.202C1.843-1.755 1.857-1.622 1.296-1.467L-1.768-.621C-2.364-.456-2.432-.649-2.56-1.004L-2.734-.956-2.168 1.092C-2.045 1.537-1.617 2.87-.453 2.548 .4 2.312 .434 1.598 .457 1.222L2.785 1.955C2.935 2.009 2.968 2.103 2.989 2.179Z" fill="#1d4164"/>
<path transform="matrix(1,0,0,-1,138.0956,216.8883)" d="M0 0-1.858 .217-.595-1.141ZM2.435 1 1.447-.896 1.288-.813C1.445-.433 1.493-.325 1.283-.215 1.111-.125 .541-.066 .294-.042L-.392-1.358C-.018-1.761 .195-1.991 .297-2.044 .539-2.171 .704-1.9 .821-1.708L.98-1.791 .361-2.978 .202-2.895C.316-2.553 .141-2.358-.245-1.933L-3.063 1.187-2.977 1.351 1.057 .907C1.876 .815 2.142 .795 2.276 1.083Z" fill="#1d4164"/>
<path transform="matrix(1,0,0,-1,141.0213,214.22742)" d="M0 0C.222-.183 .359-.22 .561 .024 1.031 .594 1.046 1.335-.28 2.429-.784 2.846-2.062 3.704-2.785 2.828-3.053 2.503-2.91 2.393-2.784 2.298ZM-.652-1.558C-.387-1.237-.464-1.003-.669-.833L-3.404 1.423C-3.742 1.702-3.938 1.488-4.124 1.308L-4.262 1.422-2.982 2.974C-1.806 4.399-.459 4.065 .396 3.36 1.416 2.518 1.828 1.254 .814-.064L-.513-1.672Z" fill="#1d4164"/>
<path transform="matrix(1,0,0,-1,142.8512,209.74231)" d="M0 0C.385-.493 1.457-1.8 2.346-1.106 3.235-.411 2.225 .945 1.84 1.438 1.194 2.265 .222 3.112-.505 2.544-1.233 1.975-.647 .827 0 0M2.76 2.157C3.69 .967 3.558-.46 2.492-1.293 1.426-2.125 .01-1.909-.92-.719-1.885 .516-1.655 1.947-.652 2.731 .352 3.515 1.795 3.392 2.76 2.157" fill="#1d4164"/>
<path transform="matrix(1,0,0,-1,149.7988,204.51288)" d="M0 0C-.305 .418-.991 1.026-1.708 .724-2.024 .591-2.275 .251-2.094-.18-1.943-.537-1.766-.635-1.138-.698L-.04-.805C.214-.831 .838-1.02 1.142-1.743 1.388-2.326 1.336-3.292 .218-3.763-.36-4.006-.728-3.896-.917-3.976-1.044-4.029-1.025-4.162-1.004-4.278L-1.181-4.352-1.87-2.715-1.694-2.641C-1.29-3.259-.622-3.859 .15-3.534 .88-3.227 .634-2.558 .597-2.472 .41-2.028 .057-1.989-.424-1.95L-.921-1.91C-2.19-1.804-2.43-1.234-2.558-.929-2.728-.525-2.92 .456-1.764 .942-1.278 1.147-.9 1.049-.724 1.123-.584 1.182-.595 1.294-.618 1.433L-.436 1.51 .17 .072Z" fill="#1d4164"/>
<path transform="matrix(1,0,0,-1,155.671,205.60022)" d="M0 0C-.345-.685-.753-1.236-1.579-1.413-3.081-1.737-4.142-.758-4.425 .556-4.732 1.983-4.039 3.28-2.685 3.571-2.104 3.696-1.533 3.458-1.366 3.494-1.191 3.532-1.165 3.692-1.139 3.882L-.964 3.919-.611 2.274-.772 2.239C-1.129 2.802-1.848 3.508-2.583 3.35-3.525 3.148-3.545 2.018-3.289 .83-3.199 .408-3.015-.259-2.679-.657-2.3-1.105-1.767-1.101-1.568-1.058-1.064-.95-.626-.635-.231 .134Z" fill="#1d4164"/>
<path transform="matrix(1,0,0,-1,160.7794,206.4898)" d="M0 0-2.243 .014-2.242 .193C-1.892 .234-1.648 .262-1.645 .7L-1.635 2.354-3.225 2.364-3.235 .71C-3.238 .271-2.994 .241-2.644 .196L-2.646 .016-4.869 .03-4.868 .209C-4.518 .258-4.306 .292-4.304 .717L-4.283 4.197C-4.28 4.665-4.563 4.681-4.84 4.711L-4.839 4.891-2.616 4.877-2.617 4.698C-2.907 4.678-3.211 4.665-3.214 4.191L-3.223 2.702-1.633 2.692-1.624 4.181C-1.621 4.656-1.925 4.672-2.215 4.695L-2.213 4.875 .03 4.861 .028 4.681C-.255 4.662-.552 4.642-.555 4.174L-.576 .694C-.579 .262-.348 .232 .001 .18Z" fill="#1d4164"/>
<path transform="matrix(1,0,0,-1,162.4789,204.41681)" d="M0 0C-.144-.609-.493-2.263 .605-2.522 1.703-2.781 2.129-1.145 2.273-.536 2.514 .485 2.567 1.773 1.668 1.985 .769 2.198 .241 1.022 0 0M3.409-.805C3.063-2.274 1.866-3.063 .55-2.753-.766-2.442-1.483-1.202-1.137 .268-.777 1.794 .484 2.509 1.723 2.216 2.962 1.924 3.77 .721 3.409-.805" fill="#1d4164"/>
<path transform="matrix(1,0,0,-1,167.5531,205.96198)" d="M0 0C-.277-.561-.991-2.093 .02-2.593 1.031-3.093 1.816-1.596 2.093-1.036 2.559-.094 2.901 1.148 2.073 1.558 1.245 1.967 .466 .941 0 0M3.14-1.553C2.47-2.907 1.127-3.406-.085-2.806-1.298-2.206-1.716-.836-1.047 .518-.352 1.923 1.037 2.335 2.179 1.771 3.32 1.206 3.835-.148 3.14-1.553" fill="#1d4164"/>
<path transform="matrix(1,0,0,-1,172.6146,212.08008)" d="M0 0-2.991 2.365-2.88 2.506C-2.559 2.316-2.39 2.211-2.118 2.555L.04 5.285C.335 5.657 .131 5.836-.088 6.037L.023 6.178 1.83 4.75 1.718 4.609C1.343 4.879 1.178 5 .785 4.504L-1.32 1.841C-1.534 1.57-1.456 1.435-1.109 1.161-.328 .543 .332 .782 1.075 1.232L1.225 1.113Z" fill="#1d4164"/>
<path transform="matrix(1,0,0,-1,176.6095,212.9159)" d="M0 0C-.509-.365-1.859-1.381-1.202-2.298-.544-3.215 .852-2.263 1.361-1.898 2.214-1.286 3.1-.351 2.562 .4 2.024 1.151 .853 .612 0 0M2.041-2.847C.814-3.727-.607-3.536-1.394-2.437-2.182-1.337-1.908 .069-.68 .949 .594 1.862 2.013 1.573 2.755 .538 3.497-.496 3.315-1.934 2.041-2.847" fill="#1d4164"/>
<path transform="matrix(1,0,0,-1,181.1011,215.23139)" d="M0 0 1.524-3.416 .204-4.005 .14-3.86C.763-3.423 1.105-3.076 .642-2.04 .497-1.714 .423-1.618 .14-1.744L-1.384-2.423C-1.063-3.176-.557-3.059 .006-2.909L.073-3.059-2.146-4.05-2.213-3.899C-1.704-3.592-1.268-3.282-1.607-2.523L-3.137-3.206C-3.57-3.399-3.476-3.646-3.308-4.076L-3.472-4.15-4.439-1.981-4.275-1.907C-4.083-2.233-3.98-2.411-3.573-2.23L-.394-.811C.039-.618-.057-.365-.164-.073Z" fill="#1d4164"/>
<path transform="matrix(1,0,0,-1,179.4588,227.91309)" d="M0 0-.263 2.174-.084 2.196C.006 1.808 .05 1.621 .522 1.678L4.12 2.113 4.118 2.126-.392 3.242-.413 3.419 3.594 5.564 3.592 5.577 .273 5.176C-.227 5.116-.384 4.977-.354 4.43L-.533 4.408-.718 5.94-.539 5.962C-.428 5.457-.31 5.385 .104 5.435L3.495 5.845C3.866 5.89 3.952 6.02 3.931 6.489L4.11 6.511 4.31 4.854 1.099 3.136 4.627 2.234 4.826 .583 4.648 .562C4.575 .925 4.535 1.133 3.921 1.059L.766 .677C.195 .608 .19 .462 .178 .021Z" fill="#1d4164"/>
<path transform="matrix(1,0,0,-1,179.1215,230.18689)" d="M0 0 .163 2.303 .342 2.291C.353 1.933 .363 1.674 .808 1.642L4.28 1.397C4.754 1.363 4.79 1.672 4.833 1.973L5.012 1.96 4.849-.343 4.67-.331C4.677-.02 4.693 .296 4.205 .331L.733 .577C.274 .609 .234 .347 .179-.013Z" fill="#1d4164"/>
<path transform="matrix(1,0,0,-1,179.3906,230.21308)" d="M0 0C-.042-.397-.036-.588 .426-.697L3.743-1.482C4.311-1.237 4.357-1.139 4.376-1.055L4.551-1.097 4.231-2.451 .716-3.972 .713-3.985 2.833-4.487C3.253-4.586 3.502-4.564 3.667-4.054L3.842-4.095 3.516-5.475 3.341-5.434C3.387-4.957 3.235-4.88 2.899-4.801L-1.223-3.826-1.18-3.646 3.289-1.686 3.292-1.673 .492-1.011C-.011-.892-.176-.995-.345-1.457L-.52-1.416-.175 .041Z" fill="#1d4164"/>
<path transform="matrix(1,0,0,-1,182.5954,236.53913)" d="M0 0-1.605-3.452-2.916-2.842-2.846-2.693C-1.856-2.986-1.496-2.637-1.12-1.829-.967-1.5-.943-1.38-1.224-1.25L-2.737-.547C-3.01-1.118-2.982-1.502-2.215-1.967L-2.288-2.123-4.492-1.098-4.419-.943C-3.571-1.25-3.234-1.036-2.958-.443L-4.536 .291C-4.823 .424-4.954 .347-5.135-.042-5.408-.628-5.522-1.318-4.712-2.152L-4.79-2.32-6.035-1.45-4.408 2.05-4.245 1.974C-4.364 1.615-4.431 1.42-4.027 1.232L-.871-.235C-.44-.435-.311-.19-.163 .076Z" fill="#1d4164"/>
<path transform="matrix(1,0,0,-1,177.5592,242.53888)" d="M0 0C.48-.192 1.384-.344 1.832 .293 2.029 .573 2.061 .994 1.679 1.263 1.361 1.486 1.16 1.475 .594 1.195L-.393 .704C-.622 .59-1.252 .42-1.893 .871-2.411 1.235-2.88 2.081-2.182 3.074-1.821 3.586-1.451 3.689-1.333 3.856-1.253 3.969-1.34 4.071-1.419 4.159L-1.309 4.315 .144 3.294 .034 3.137C-.636 3.447-1.521 3.601-2.003 2.916-2.458 2.268-1.895 1.832-1.818 1.778-1.424 1.501-1.104 1.655-.675 1.878L-.233 2.107C.898 2.691 1.404 2.335 1.675 2.145 2.034 1.893 2.716 1.163 1.995 .138 1.692-.294 1.319-.411 1.209-.568 1.122-.692 1.191-.781 1.284-.887L1.17-1.049-.106-.151Z" fill="#1d4164"/>
<path transform="matrix(1,0,0,-1,152.0542,252.92963)" d="M0 0-3.262 1.025-3.209 1.193C-2.202 .869-2.09 1.135-1.953 1.571L-1.104 4.275C-1.049 4.45-.952 4.759-1.291 4.866-1.413 4.904-1.735 4.913-2.059 4.914L-2.002 5.097 .431 5.174 .579 5.128-.679 1.124C-.827 .653-.808 .439 .053 .169Z" fill="#1d4164"/>
<path transform="matrix(1,0,0,-1,156.2054,250.41028)" d="M0 0C.232 .205 .414 .364 .46 .803 .5 1.176 .418 1.71-.253 1.781-.697 1.828-1.027 1.567-1.059 1.266-1.13 .585-.087 .046 0 0M-.8-2.899C.007-2.984 .077-2.318 .097-2.128 .16-1.527-.396-1.15-.978-.756-1.285-1.057-1.499-1.264-1.556-1.798-1.611-2.325-1.39-2.837-.8-2.899M1.544 .733C1.479 .111 .716-.075 .204-.155 .944-.61 1.471-1.184 1.399-1.865 1.303-2.78 .408-3.263-.889-3.127-1.868-3.024-2.739-2.502-2.654-1.697-2.57-.899-1.788-.693-1.164-.603-1.812-.224-2.345 .284-2.281 .892-2.209 1.573-1.536 2.131-.085 1.978 1.293 1.833 1.588 1.151 1.544 .733" fill="#1d4164"/>
<path transform="matrix(1,0,0,-1,160.5333,253.49658)" d="M0 0-.863-.079 .593 4.039-1.286 3.867C-1.523 3.846-1.977 3.805-2.12 3.163L-2.347 3.142-2.096 4.807 1.682 5.151Z" fill="#1d4164"/>
<path transform="matrix(1,0,0,-1,164.6876,248.5907)" d="M0 0-.017-.005-1.207-2.619 .619-2.074ZM2.419-1.537 2.653-2.32 2.103-2.484 2.406-3.5 1.139-3.878 .836-2.862-1.331-3.509-1.569-2.712C-1.091-1.478-.293 .058 .258 1.145L.957 1.354 1.869-1.701Z" fill="#1d4164"/>
<path transform="matrix(1,0,0,-1,148.3117,215.9226)" d="M0 0C.349 .298 .259 .668 .041 .923-.189 1.192-.54 1.339-.889 1.041-1.237 .743-1.148 .373-.918 .104-.7-.152-.349-.298 0 0M-1.131 1.325C-.584 1.791 .04 1.711 .429 1.255 .807 .812 .789 .183 .242-.284-.304-.75-.929-.67-1.307-.227-1.696 .229-1.677 .858-1.131 1.325" fill="#1d4164"/>
<path transform="matrix(1,0,0,-1,148.5231,213.60169)" d="M0 0 1.379 .874 1.579 .559 .631-.042 .881-.436 1.702 .085 1.887-.207 1.065-.727 1.512-1.432 1.081-1.705Z" fill="#1d4164"/>
<path transform="matrix(1,0,0,-1,150.3015,212.51819)" d="M0 0 1.475 .698 1.635 .361 .621-.119 .82-.541 1.699-.125 1.847-.437 .968-.853 1.325-1.607 .863-1.825Z" fill="#1d4164"/>
<path transform="matrix(1,0,0,-1,152.1596,211.69178)" d="M0 0 .48 .175 1.172-1.721 .692-1.897Z" fill="#1d4164"/>
<path transform="matrix(1,0,0,-1,154.8509,211.59748)" d="M0 0C-.08 .187-.331 .282-.577 .222-1.022 .112-1.108-.259-1.024-.602-.943-.929-.694-1.217-.249-1.107 .054-1.032 .18-.809 .154-.542L.633-.423C.704-.924 .393-1.333-.16-1.469-.858-1.641-1.38-1.29-1.519-.724-1.663-.142-1.364 .412-.667 .584-.171 .706 .308 .557 .48 .118Z" fill="#1d4164"/>
<path transform="matrix(1,0,0,-1,155.6636,210.77002)" d="M0 0 .506 .068 .777-1.932 .271-2.001Z" fill="#1d4164"/>
<path transform="matrix(1,0,0,-1,157.3629,211.83972)" d="M0 0 .601 .02 .284 .751H.277ZM.007 1.239 .53 1.257 1.466-.731 .936-.749 .746-.306-.122-.335-.289-.791-.806-.808Z" fill="#1d4164"/>
<path transform="matrix(1,0,0,-1,159.1293,210.59052)" d="M0 0 .508-.049 .349-1.687 1.475-1.797 1.439-2.168-.195-2.009Z" fill="#1d4164"/>
<path transform="matrix(1,0,0,-1,162.1069,212.41449)" d="M0 0C-.075-.258 .127-.426 .389-.502 .561-.552 .836-.585 .893-.386 .954-.177 .63-.045 .325 .126 .016 .299-.286 .507-.18 .871-.065 1.267 .421 1.332 .824 1.215 1.289 1.08 1.666 .779 1.535 .331L1.061 .469C1.113 .707 .94 .822 .706 .89 .55 .935 .352 .931 .305 .768 .261 .619 .362 .569 .884 .282 1.036 .199 1.51-.036 1.382-.476 1.278-.831 .88-1.004 .274-.828-.219-.684-.62-.338-.475 .138Z" fill="#1d4164"/>
<path transform="matrix(1,0,0,-1,164.3303,211.70069)" d="M0 0 1.586-.706 1.435-1.047 .315-.549 .139-.944 1.167-1.401 1.027-1.716-.001-1.259-.202-1.711 .941-2.22 .789-2.561-.821-1.845Z" fill="#1d4164"/>
<path transform="matrix(1,0,0,-1,166.2438,214.02649)" d="M0 0 .511-.318 .654 .465 .648 .469ZM.696 1.025 1.141 .749 .81-1.424 .36-1.144 .449-.669-.288-.21-.68-.495-1.119-.222Z" fill="#1d4164"/>
<path transform="matrix(1,0,0,-1,168.4068,213.97498)" d="M0 0 .394-.325-.653-1.594 .22-2.314-.017-2.602-1.284-1.558Z" fill="#1d4164"/>
</svg>